<?xml version="1.0" encoding="UTF-8" standalone="no"?>
<!DOCTYPE svg PUBLIC "-//W3C//DTD SVG 1.1//EN" "http://www.w3.org/Graphics/SVG/1.1/DTD/svg11.dtd">
<svg width="100%" height="100%" viewBox="0 0 1003 1285" version="1.1" xmlns="http://www.w3.org/2000/svg" xmlns:xlink="http://www.w3.org/1999/xlink" xml:space="preserve" xmlns:serif="http://www.serif.com/" style="fill-rule:evenodd;clip-rule:evenodd;stroke-linecap:round;stroke-miterlimit:1.5;">
    <g transform="matrix(1,0,0,1,7.10543e-15,-1458.64)">
        <g id="Day-2" transform="matrix(1.29,0,0,1.64172,-18.3684,1554.2)">
            <rect x="14.239" y="-58.21" width="777.207" height="782.232" style="fill:rgb(162,8,8);"/>
            <clipPath id="_clip1">
                <rect x="14.239" y="-58.21" width="777.207" height="782.232"/>
            </clipPath>
            <g clip-path="url(#_clip1)">
                <g transform="matrix(0.775192,0,0,0.762327,14.239,-68.8505)">
                    <rect x="0" y="13.958" width="1002.6" height="1026.11" style="fill:url(#_Linear2);"/>
                </g>
                <g transform="matrix(0.775192,0,0,0.609119,14.239,-58.21)">
                    <path d="M508.889,331.287C508.889,331.287 515.891,280.516 524.645,275.206C524.645,275.206 640.636,239.772 648.242,229.439C648.242,229.439 800.705,154.436 838.009,103.457C838.009,103.457 870.686,101.058 873.699,117.764C873.699,117.764 895.123,173.409 900.694,187.743C900.694,187.743 949.744,273.201 959.072,280.377C959.072,280.377 986.26,302.564 979.946,332.389C979.946,332.389 968.699,381.971 969.61,393.373C969.61,393.373 958.712,462.965 949.814,467.701C949.814,467.701 922.166,517.951 922.31,530.723C922.31,530.723 905.31,642.208 911.877,655.705C911.877,655.705 907.346,697.127 908.494,704.159C908.494,704.159 912.023,725.478 914.032,729.066C914.032,729.066 887.528,730.847 886.81,731.134C886.093,731.421 890.362,689.223 892.658,684.487C892.658,684.487 897.636,579.915 897.923,565.785C897.923,565.785 900.828,448.847 898.819,429.779C898.819,429.779 894.882,314.908 819.325,263.685C819.325,263.685 803.335,302.211 784.247,313.118C784.247,313.118 781.186,388.597 776.861,396.855L502.974,361.283L508.889,331.287Z" style="fill:rgb(134,0,10);stroke:black;stroke-width:4.5px;"/>
                </g>
                <g transform="matrix(0.775192,0,0,0.609119,14.239,-58.21)">
                    <path d="M910.137,705.748C910.137,705.748 915.084,710.399 918.098,713.126C918.098,713.126 932.631,698.525 935.932,698.238C935.932,698.238 952.474,702.513 954.627,706.388C954.627,706.388 971.068,705.145 969.776,725.094C969.776,725.094 975.661,763.162 980.897,766.894C980.897,766.894 971.772,794.186 962.587,796.769C962.587,796.769 969.091,823.376 964.499,827.458C964.499,827.458 968.14,839.294 955.08,849.291C955.08,849.291 939.35,864.386 922.749,869.021C922.749,869.021 896.635,865.726 892.186,861.449C892.186,861.449 868.528,865.476 868.241,854.856C868.241,854.856 858.979,855.115 861.647,846.759C861.647,846.759 847.509,822.33 843.112,815.708C843.112,815.708 823.6,800.029 842.218,773.009C842.218,773.009 851.413,766.003 839.214,743.472C839.214,743.472 838.926,729.512 852.847,721.763C852.847,721.763 860.144,700.671 869.185,700.671C869.185,700.671 893.16,711.61 893.59,718.499C893.59,718.499 908.113,704.545 910.137,705.748Z" style="fill:rgb(239,230,226);stroke:black;stroke-width:4.5px;"/>
                </g>
                <g transform="matrix(0.775192,0,0,0.609119,14.239,-58.21)">
                    <path d="M394.658,397.893C394.658,397.893 388.312,363.177 404.242,349.543C404.242,349.543 441.027,344.702 450.068,342.98C450.068,342.98 478.498,327.145 489.584,325.136C489.584,325.136 544.018,339.967 550.906,341.976C550.906,341.976 569.455,331.653 576.774,329.931C576.774,329.931 594.685,349.335 600.856,351.057C600.856,351.057 635.367,322.097 641.825,321.81C641.825,321.81 674.535,336.934 676.975,343.679C676.975,343.679 707.794,352.999 709.229,358.309C709.229,358.309 737.938,358.802 739.913,368.991C739.913,368.991 759.683,387.474 772.168,383.599C772.168,383.599 791.833,416.634 788.245,424.384C788.245,424.384 806.924,438.643 813.213,440.221C813.213,440.221 801.044,472.314 806.651,478.198C806.651,478.198 826.193,502.247 824.758,510.714C824.758,510.714 814.149,541.455 819.172,545.904C819.172,545.904 833.255,584.493 801.474,595.4C801.474,595.4 608.484,551.752 581.598,525.837C581.598,525.837 391.613,404.386 394.658,397.893Z" style="fill:rgb(239,230,226);stroke:black;stroke-width:4.5px;"/>
                </g>
                <g id="head" transform="matrix(0.775192,0,0,0.609119,15.0362,-57.9901)">
                    <path d="M468.564,397.668C472.745,397.78 476.93,397.719 481.106,397.485C511.006,396.082 630.151,393.495 702.515,434.02C702.515,434.02 720.317,440.085 725.779,446.328C725.779,446.328 774.201,472.416 795.28,577.689C795.28,577.689 804.585,605.302 805.302,679.29C805.302,679.29 809.076,815.173 804.001,847.587C798.926,880.001 794.93,930.481 787.188,954.983C779.445,979.484 748.754,1023.28 700.525,1046.69C700.525,1046.69 664.258,1074.85 569.469,1096.06C569.469,1096.06 478.888,1116.29 397.02,1107.11C397.02,1107.11 318.5,1102.27 273.88,1066.92C272.305,1065.66 270.684,1064.47 269.02,1063.33C256.412,1054.43 205.101,1015.65 187.87,962.443C187.87,962.443 167.217,910.343 159.559,840.349C159.559,840.349 149.092,754.398 151.409,703.894C151.591,700.445 151.549,696.988 151.282,693.544C150.471,680.393 150.434,643.228 165.135,576.443C165.565,574.492 165.905,572.523 166.154,570.54C168.434,554.426 180.695,490.423 230.89,457.951C230.89,457.951 278.573,421.174 318.38,414.763C322.362,414.141 326.282,413.173 330.095,411.868C345.651,406.924 390.326,395.629 468.564,397.668Z" style="fill:rgb(236,230,230);stroke:black;stroke-width:6px;stroke-linejoin:round;"/>
                </g>
                <g transform="matrix(0.775192,0,0,0.609119,14.239,-58.21)">
                    <path d="M661.37,867.106C661.37,867.106 684.972,859.887 686.992,857.303C686.992,857.303 702.477,843.078 710.641,843.819C710.641,843.819 705.016,854.116 692.966,859.636C692.966,859.636 670.694,870.488 661.37,867.106Z" style="stroke:black;stroke-width:0.7px;"/>
                </g>
                <g transform="matrix(0.775192,0,0,0.609119,14.239,-58.21)">
                    <path d="M603.295,852.758C603.822,851.88 605.741,854.697 605.093,857.288C605.093,857.288 600.264,857.811 603.295,852.758Z" style="stroke:black;stroke-width:0.7px;"/>
                </g>
                <g transform="matrix(0.775192,0,0,0.609119,14.239,-58.21)">
                    <path d="M609.122,865.197C609.122,865.197 613.404,871.69 614.483,872.086C615.563,872.482 613.563,874.355 614.39,875.435C614.39,875.435 610.461,875.732 609.122,873.753C609.122,873.753 606.562,867.822 609.122,865.197Z" style="stroke:black;stroke-width:0.7px;"/>
                </g>
                <g transform="matrix(0.775192,0,0,0.609119,14.239,-58.21)">
                    <path d="M202.139,869.021C202.139,869.021 206.607,883.007 210.088,885.591L213.793,891.262C213.793,891.262 217.322,902.185 219.22,901.711C219.22,901.711 222.836,892.628 227.029,892.944C227.029,892.944 228.389,896.864 225.936,899.475C225.936,899.475 220.453,905.851 221.798,908.62C221.798,908.62 222.081,914.499 223.663,915.844C223.663,915.844 228.182,929.214 233.324,929.926C233.324,929.926 236.031,940.786 239.433,941.577C239.433,941.577 245.13,927.342 247.978,927.422C247.978,927.422 257.999,926.912 253.806,935.694C253.806,935.694 248.544,944.648 247.594,947.971C247.594,947.971 245.401,956.659 247.458,957.767C247.458,957.767 249.978,964.223 252.43,964.382C252.43,964.382 268.66,978.957 274.673,979.116C274.673,979.116 277.358,979.821 279.099,974.757C279.099,974.757 278.943,972.544 280.05,970.724C280.05,970.724 282.579,964.428 283.554,963.746C283.554,963.746 285.499,959.65 287.058,958.456C287.058,958.456 289.371,951.956 291.319,954.866C293.267,957.776 295.352,955.799 292.502,960.645C292.502,960.645 290.848,964.343 290.556,965.828C290.556,965.828 290.332,968.831 289.991,969.806C289.991,969.806 288.265,970.308 287.973,971.55C287.973,971.55 288.315,973.521 287.024,974.641C287.024,974.641 282.571,981.324 285.143,984.341C287.716,987.358 293.782,992.525 296.626,993.023C299.47,993.52 301.503,993.054 303.028,993.127C304.553,993.2 308.273,994.349 315.806,997.702C315.806,997.702 321.618,1002.35 327.172,1001.47C327.172,1001.47 329.503,1001.2 330.391,998.948C330.391,998.948 331.02,996.772 331.305,994.792C331.387,993.549 331.707,992.333 332.249,991.211C332.828,989.89 333.656,987.911 334.107,985.865C334.107,985.865 334.334,982.966 334.894,982.016C334.894,982.016 336.587,977.583 337.726,974.601C337.726,974.601 338.961,968.145 342.565,969.72C346.169,971.296 344.523,973.904 343.527,976.53C343.527,976.53 341.252,980.899 341.262,982.461C341.358,982.543 341.416,982.66 341.423,982.786C341.431,982.911 341.387,983.034 341.302,983.127C340.903,983.746 339.579,985.734 338.626,990.132C336.95,997.86 337.068,994.722 337.426,995.665C337.426,995.665 335.965,998.223 336.453,1000.82C336.453,1000.82 335.537,1005.18 337.417,1005.97C337.417,1005.97 342.043,1010.17 346.471,1010.68C346.471,1010.68 355.166,1012.59 357.886,1015.12C357.886,1015.12 364.554,1017.51 366.757,1017.4C366.757,1017.4 373.345,1019.85 377.482,1018.92C377.482,1018.92 391.456,1022.28 395.068,1022.3C395.068,1022.3 396.24,1021.74 398.24,1013.86C398.24,1013.86 397.688,1009.33 398.589,1008.58C398.589,1008.58 400.431,1000.49 400.298,998.618C400.298,998.618 402.844,990.379 406.236,991.758C406.236,991.758 410.262,992.18 408.895,1000.72C408.895,1000.72 406.778,1007.99 405.991,1010.61C405.991,1010.61 403.131,1019.49 404.862,1020.66C404.862,1020.66 409.669,1025.75 422.431,1024.55C422.431,1024.55 426.565,1023.84 427.832,1023.84C427.832,1023.84 432.084,1026.21 435.504,1025.52C435.504,1025.52 452.901,1024.18 459.612,1024.47C459.612,1024.47 473.786,1023.89 478.825,1023.17C478.825,1023.17 479.826,1023.27 480.094,1022.05C480.094,1022.05 479.621,1015.08 480.425,1013.96C480.425,1013.96 482.99,1010.26 482.189,1004.89C482.189,1004.89 483.617,998.857 483.876,996.279C483.876,996.279 487.228,985.165 490.394,996.152C490.394,996.152 489.982,1001.68 489.584,1002.96C489.584,1002.96 488.586,1006.19 489.584,1010.82C489.584,1010.82 490.972,1016.51 489.584,1019.02C488.196,1021.53 490.257,1021.9 491.994,1022.82C493.732,1023.74 499.646,1020.88 509.703,1020.48C509.703,1020.48 516.431,1020.13 522.982,1021.01C522.982,1021.01 530.523,1018.07 535.428,1018.19C535.428,1018.19 539.257,1014.78 542.764,1016.24C542.764,1016.24 544.792,1012.52 545.693,1012.13C545.693,1012.13 544.851,1003.92 545.831,1002.04C545.831,1002.04 545.454,994.365 544.602,993.099C544.602,993.099 542.748,987.715 546.377,988.129C546.377,988.129 551.556,988.238 550.847,995.543C550.847,995.543 551.807,1003.27 553.266,1006.01C553.266,1006.01 552.764,1010.82 556.17,1010.77C556.17,1010.77 575.188,1007.13 586.524,1002.3C586.524,1002.3 603.558,994.845 608.376,993.005C608.376,993.005 618.301,989.33 619.372,987.785C619.372,987.785 620.31,979.268 617.707,972.109C615.104,964.951 613.256,962.586 613.814,961.405C613.814,961.405 610.37,957.398 615.646,956.002C615.646,956.002 622.34,955.235 623.562,966.572C623.562,966.572 627.108,975.741 627.714,978.596C628.32,981.452 630.015,985.37 631.305,985.443C631.305,985.443 646.471,980.75 651.549,976.815C651.549,976.815 678.529,964.4 680.644,959.06C682.759,953.72 678.499,950.01 678.762,948.964C678.762,948.964 678.282,947.95 678.05,947.46C678.05,947.46 677.217,943.912 676.003,938.745C676.003,938.745 673.275,927.869 673.897,926.423C673.897,926.423 673.568,923.673 674.841,922.943C675.386,922.63 683.393,924.26 685.223,937.456C687.054,950.651 689.63,952.063 692.897,953.65C692.897,953.65 709.401,945.919 715.094,937.04C720.788,928.162 739.714,916.582 741.878,908.885C741.878,908.885 737.298,901.97 736.566,897.912C736.566,897.912 736.812,891.442 734.595,889.62C734.595,889.62 728.231,882.97 729.506,877.214C729.506,877.214 733.366,872.58 737.573,880.463C741.779,888.346 737.782,880.856 737.782,880.856C737.782,880.856 745.782,894.147 746.561,894.134C746.561,894.134 747.307,882.799 748.804,881.275C748.804,881.275 751.818,849.52 752.875,845.079C752.875,845.079 739.79,834.589 741.94,830.545C741.94,830.545 754.171,833.964 755.456,836.729C755.456,836.729 756.051,814.247 762.099,815.783C762.12,816.495 767.958,815.908 764.621,825.413C764.621,825.413 766.313,824.483 764.621,825.413C764.621,825.413 763.13,840.638 764.495,844.445C764.495,844.445 767.843,852.461 769.773,853.689C769.773,853.689 777.171,859.202 776.851,861.931C776.851,861.931 777.006,865.996 771.685,863.699C771.685,863.699 763.799,855.18 762.945,854.161C762.945,854.161 759.219,858.786 759.05,866.568C759.05,866.568 757.313,876.607 758.227,878.823C758.227,878.823 758.498,881.009 758.152,881.772C758.152,881.772 757.176,884.478 756.563,885.296C756.563,885.296 756.847,893.52 755.735,896.696C755.735,896.696 755.233,905.027 755.056,907.243C754.878,909.458 756.762,913.331 757.841,915.201C758.92,917.07 760.132,922.43 761.23,923.546C762.328,924.662 765.207,926.535 765.729,928.12C765.729,928.12 766.234,929.865 761.238,929.853C761.238,929.853 757.406,930.702 753.029,922.427C753.029,922.427 750.279,918.098 746.435,921.105C746.435,921.105 738.586,927.893 735.877,929.618C735.877,929.618 724.694,938.211 722.727,941.744C722.727,941.744 712.423,950.495 709.784,952.413C707.145,954.331 699.628,960.235 697.095,962.892C697.095,962.892 696.754,963.357 695.33,963.52C695.33,963.52 694.881,972.047 697.331,974.042C699.782,976.037 701.823,987.923 699.706,990.939C699.706,990.939 697.836,992.762 696.588,992.546C696.588,992.546 692.651,988.65 692.27,984.625C692.27,984.625 689.884,976.208 688.468,975.8C687.051,975.391 688.02,975.671 688.02,975.671C688.02,975.671 685.881,972.959 684.056,972.887C684.056,972.887 672.036,974.335 666.768,979.746C666.768,979.746 656.299,985.884 651.565,986.729C651.565,986.729 638.701,990.814 636.087,992.2C636.087,992.2 633.244,993.526 632.38,994.558C632.38,994.558 631.349,999.621 632.501,1002.94C632.501,1002.94 636.283,1013.07 634.041,1015.67C634.041,1015.67 630.31,1017.02 626.481,1005.89C626.481,1005.89 624.921,999.03 621.328,999.446C621.328,999.446 616.234,1001.52 616.337,1002.13C616.337,1002.13 611.781,1002.33 610.809,1002.75C610.809,1002.75 604.844,1004.94 601.952,1006.89C601.952,1006.89 597.895,1007.5 596.587,1007.56C596.587,1007.56 589.321,1011.82 587.497,1011.65C587.497,1011.65 585.649,1011.33 584.799,1011.55C584.799,1011.55 576.897,1015.85 575.085,1016.61C573.274,1017.38 570.196,1017.41 568.998,1017.3C568.998,1017.3 566.38,1019.76 565.317,1020.04C565.317,1020.04 558.407,1020.5 557.792,1020.39C557.792,1020.39 558.375,1034.12 557.522,1037.33C557.522,1037.33 555.834,1046.22 555.512,1047.26C555.512,1047.26 549.474,1045.91 549.246,1039.88C549.246,1039.88 550.695,1027.93 546.437,1024.42C546.437,1024.42 536.394,1023.27 529.698,1026.53C529.698,1026.53 509.685,1028.91 504.046,1029.16C504.046,1029.16 493.752,1030.01 492.352,1030.2C492.352,1030.2 489.426,1039.12 490.135,1042.5C490.135,1042.5 491.319,1051.4 489.232,1051.93C489.232,1051.93 484.565,1053.19 484.116,1042.51C484.116,1042.51 480.744,1032.01 479.693,1031.34C478.641,1030.66 456.623,1030.37 451.374,1031.98C451.374,1031.98 429.826,1031.36 423.796,1031.41C423.796,1031.41 408.335,1031.03 407.506,1030.3C407.506,1030.3 405.259,1038.68 403.897,1039.34C403.897,1039.34 402.879,1041.8 402.66,1042.43C402.66,1042.43 402.585,1048.75 399.554,1048.91C399.554,1048.91 394.895,1046.71 393.919,1042.65C393.919,1042.65 395.493,1037.29 394.8,1036.2C394.8,1036.2 395.825,1030.91 391.836,1029.87C391.836,1029.87 387.833,1030.4 387.043,1029.79C387.043,1029.79 384.412,1027.41 383.637,1027.6C383.637,1027.6 354.698,1021.53 338.597,1014.14C338.597,1014.14 336.328,1012.49 335.307,1014.9C335.307,1014.9 334.443,1027.78 331.871,1031.35C331.871,1031.35 329.806,1043.83 329.629,1045.27C329.629,1045.27 328.88,1048.26 325.196,1047.52C325.196,1047.52 320.598,1046.48 323.51,1035.69C323.51,1035.69 326.015,1013.08 327.143,1011.29C327.143,1011.29 317.316,1003.87 311.621,1003.02C311.621,1003.02 300.143,1002.52 297.794,1001.77C297.794,1001.77 286.686,996.52 284.292,993.292C284.292,993.292 281.053,990.991 280.686,995.424C280.686,995.424 277.473,1011.19 277.283,1012.11C277.094,1013.04 274.595,1017.46 273.313,1020.01C273.313,1020.01 271.293,1027.82 271.684,1028.66C271.684,1028.66 266.73,1028.47 268.48,1013.03C268.48,1013.03 272.63,994.814 272.865,992.999C272.865,992.999 257.871,980.066 253.223,978.13C253.223,978.13 242.924,971.309 243.2,968.85C243.2,968.85 232.634,983.15 234.659,989.858C234.659,989.858 232.783,991.621 230.016,986.197C230.016,986.197 228.089,984.545 229.428,978.244C229.428,978.244 231.666,970.351 233.29,966.392C233.29,966.392 229.447,963.217 233.515,955.209C233.515,955.209 232.304,947.276 229.991,943.041C229.991,943.041 226.965,935.092 222.542,935.533C222.542,935.533 213.156,922.824 213.566,915.5C213.566,915.5 210.251,902.816 208.581,898.494C208.581,898.494 203.124,880.304 202.064,878.654C202.064,878.654 196.269,867.114 202.139,869.021Z"/>
                </g>
                <g id="right-eye" transform="matrix(1.08239,0,0,0.89568,-97.761,-302.688)">
                    <path d="M314.705,733.525C345.768,736.508 372.42,771.944 371.191,800.57C369.799,833.001 343.942,859.359 314.705,863.582C285.416,867.812 255.03,834.069 260.008,798.554C264.32,767.796 285.869,730.756 314.705,733.525Z" style="stroke:black;stroke-width:7.67px;stroke-linejoin:round;"/>
                </g>
                <g id="left-eye" transform="matrix(1.0682,0,0,0.708557,-204.417,-137.571)">
                    <path d="M683.028,668.81C712.732,678.354 737.236,710.394 741.147,749.649C746.691,805.278 716.335,848.284 683.028,846.856C648.17,845.361 623.593,817.612 619.745,768.63C616.004,721.014 639.523,654.833 683.028,668.81Z" style="stroke:black;stroke-width:7.84px;stroke-linejoin:round;"/>
                </g>
                <g id="left-eye-bag" transform="matrix(0.775192,0,0,0.609119,14.239,-58.21)">
                    <path d="M386.37,808.695C386.37,808.695 380.583,823.713 378.427,827.673C378.267,827.944 378.094,828.207 377.909,828.461C376.301,830.677 368.678,841.274 365.334,847.961C365.334,847.961 363.801,849.635 362.694,852.018C361.554,854.478 359.996,856.722 358.09,858.651C355.085,861.691 350.924,865.669 348.434,867.106C348.434,867.106 342.829,872.928 338.103,873.661C338.103,873.661 335.819,873.917 332.375,875.999C331.747,876.376 331.166,876.826 330.644,877.34C329.843,878.106 327.918,879.542 324.342,879.847C323.943,879.882 323.548,879.942 323.157,880.029C322.06,880.25 319.598,880.609 318.105,879.614C316.991,878.881 315.616,878.659 314.328,879.004C312.786,879.44 310.47,880.144 307.068,881.22C307.068,881.22 301.001,882.004 296.817,881.491C296.74,881.478 296.665,881.521 296.637,881.594C296.609,881.667 296.637,881.749 296.703,881.791C298.281,882.706 302.481,884.821 307.556,884.757C307.556,884.757 310.561,883.952 313.067,882.99C314.375,882.421 315.839,882.325 317.209,882.718C319.278,883.314 322.532,884.213 325.324,884.737C327.094,884.996 328.901,884.672 330.471,883.813C331.273,883.379 332.183,882.878 333.069,882.343C334.701,881.267 336.568,880.597 338.512,880.39C339.587,880.304 340.834,880.164 342.014,879.952C343.376,879.642 344.653,879.035 345.753,878.175C349.543,875.132 359.416,866.589 366.684,855.637C367.007,855.147 367.28,854.626 367.5,854.082C368.604,851.346 372.369,842.123 374.254,839.286C374.254,839.286 386.869,820.514 386.37,808.695Z" style="stroke:black;stroke-width:0.35px;stroke-linejoin:round;"/>
                </g>
                <g id="right-nostril" transform="matrix(0.775192,0,0,0.609119,14.239,-58.21)">
                    <path d="M467.297,858.188C467.297,858.188 481.667,835.068 471.023,827.695C471.023,827.695 469.52,827.095 467.564,827.806C467.564,827.806 460.484,836.444 460.557,841.305C460.557,841.305 457.989,847.46 456.709,849.773C455.428,852.085 456.389,855.282 455.713,857.558C455.713,857.558 456.222,863.039 455.511,865.529C455.511,865.529 456.644,871.625 459.768,871.091L467.297,858.188Z" style="stroke:black;stroke-width:0.35px;stroke-linejoin:round;"/>
                </g>
                <g id="left-nostril" transform="matrix(0.775192,0,0,0.609119,14.239,-58.21)">
                    <path d="M493.69,804.821C493.894,804.383 494.319,804.089 494.801,804.052C495.284,804.015 495.748,804.241 496.017,804.643C502.188,813.992 525.803,851.842 512.218,861.205C512.218,861.205 512.316,861.449 511.198,861.449C510.764,861.455 510.352,861.261 510.08,860.923C509.808,860.585 509.707,860.14 509.806,859.718C510.02,859.184 510.152,858.535 510.196,857.859C510.248,856.957 509.867,856.083 509.17,855.508C508.473,854.933 507.544,854.725 506.668,854.948C506.128,855.091 505.504,855.303 504.788,855.611C503.676,856.074 502.404,855.935 501.419,855.243C499.583,853.968 496.804,851.443 495.003,847.12C494.291,845.42 493.379,843.81 492.286,842.326C491.536,841.411 490.843,840.225 490.586,839.001C490.49,838.473 490.336,837.958 490.126,837.464C489.706,836.238 488.99,833.385 490.498,829.266C490.811,828.395 491.277,827.588 491.874,826.882C492.651,825.889 493.993,823.899 493.436,821.754C493.436,821.754 492.104,810.742 493.69,804.821Z" style="stroke:black;stroke-width:0.35px;stroke-linejoin:round;"/>
                </g>
            </g>
        </g>
    </g>
    <defs>
        <linearGradient id="_Linear2" x1="0" y1="0" x2="1" y2="0" gradientUnits="userSpaceOnUse" gradientTransform="matrix(8.33221,1016.59,-1272.28,6.65765,479.854,13.9578)"><stop offset="0" style="stop-color:rgb(248,116,0);stop-opacity:1"/><stop offset="0.48" style="stop-color:rgb(79,43,11);stop-opacity:1"/><stop offset="1" style="stop-color:rgb(27,20,14);stop-opacity:1"/></linearGradient>
    </defs>
</svg>
