
<svg width="100%" height="100%" viewBox="0 0 880 614" version="1.1" xmlns="http://www.w3.org/2000/svg" xmlns:xlink="http://www.w3.org/1999/xlink" xml:space="preserve" xmlns:serif="http://www.serif.com/" style="fill-rule:evenodd;clip-rule:evenodd;stroke-linecap:round;stroke-linejoin:round;stroke-miterlimit:1.5;">
    <g transform="matrix(1,0,0,1,-35.6004,-2005.6)">
        <g transform="matrix(1.10466,0,0,1.18123,16.972,2001.63)">
            <g transform="matrix(1.50032,0,0,1.59681,-1.05851,14.0263)">
                <g transform="matrix(0.603368,0,0,0.530167,-8.47873,-29.1189)">
                    <path d="M913.16,72.415C913.16,55.803 899.674,42.317 883.062,42.317L63.949,42.317C47.337,42.317 33.85,55.803 33.85,72.415L33.85,625.477C33.85,642.088 47.337,655.575 63.949,655.575L883.062,655.575C899.674,655.575 913.16,642.088 913.16,625.477L913.16,72.415Z" style="fill:rgb(249,249,249);"/>
                    <clipPath id="_clip1">
                        <path d="M913.16,72.415C913.16,55.803 899.674,42.317 883.062,42.317L63.949,42.317C47.337,42.317 33.85,55.803 33.85,72.415L33.85,625.477C33.85,642.088 47.337,655.575 63.949,655.575L883.062,655.575C899.674,655.575 913.16,642.088 913.16,625.477L913.16,72.415Z"/>
                    </clipPath>
                    <g clip-path="url(#_clip1)">
                        <g>
                            <g transform="matrix(1,0,0,0.764655,15.2218,32.3063)">
                                <rect x="18.628" y="13.091" width="879.31" height="79.165" style="fill:rgb(200,199,201);"/>
                            </g>
                            <g transform="matrix(1.01763,0,0,1,-17.5044,-1963.28)">
                                <path d="M893.917,2521.99C893.917,2516.87 889.828,2512.7 884.79,2512.7L80.211,2512.7C75.174,2512.7 71.085,2516.87 71.085,2521.99L71.085,2638.33C71.085,2643.46 75.174,2647.62 80.211,2647.62L884.79,2647.62C889.828,2647.62 893.917,2643.46 893.917,2638.33L893.917,2521.99Z" style="fill:none;stroke:rgb(234,234,234);stroke-width:6.94px;"/>
                            </g>
                        </g>
                    </g>
                </g>
                <g transform="matrix(0.440072,0,0,0.439715,6.61232,-20.1394)">
                    <circle cx="74.148" cy="67.093" r="14.419" style="fill:rgb(254,95,87);"/>
                </g>
                <g transform="matrix(0.440072,0,0,0.439715,25.5791,-20.1394)">
                    <circle cx="74.148" cy="67.093" r="14.419" style="fill:rgb(254,188,46);"/>
                </g>
                <g transform="matrix(0.440072,0,0,0.439715,44.5459,-20.1394)">
                    <circle cx="74.148" cy="67.093" r="14.419" style="fill:rgb(40,200,64);"/>
                </g>
            </g>
        </g>
        <g transform="matrix(1.10466,0,0,1.18123,16.972,2001.63)">
            <g transform="matrix(0.905254,0,0,0.846574,-11.5664,-1698.35)">
                <path d="M889.722,2104.63C889.722,2097.21 883.697,2091.18 876.275,2091.18L65.836,2091.18C58.414,2091.18 52.389,2097.21 52.389,2104.63L52.389,2459.88C52.389,2467.3 58.414,2473.33 65.836,2473.33L876.275,2473.33C883.697,2473.33 889.722,2467.3 889.722,2459.88L889.722,2104.63Z" style="fill:rgb(234,249,255);"/>
                <clipPath id="_clip2">
                    <path d="M889.722,2104.63C889.722,2097.21 883.697,2091.18 876.275,2091.18L65.836,2091.18C58.414,2091.18 52.389,2097.21 52.389,2104.63L52.389,2459.88C52.389,2467.3 58.414,2473.33 65.836,2473.33L876.275,2473.33C883.697,2473.33 889.722,2467.3 889.722,2459.88L889.722,2104.63Z"/>
                </clipPath>
                <g clip-path="url(#_clip2)">
                    <g transform="matrix(0.373521,0,0,0.373521,491.933,2144.05)">
                        <g transform="matrix(1,0,0,1,10,10)">
                            <path id="b" d="M960,53.545C960,23.992 936.008,0 906.455,0L53.545,0C23.992,0 0,23.992 0,53.545L0,546.455C0,576.008 23.992,600 53.545,600L906.455,600C936.008,600 960,576.008 960,546.455L960,53.545Z"/>
                            <path id="b1" serif:id="b" d="M960,53.545C960,23.992 936.008,0 906.455,0L53.545,0C23.992,0 0,23.992 0,53.545L0,546.455C0,576.008 23.992,600 53.545,600L906.455,600C936.008,600 960,576.008 960,546.455L960,53.545Z" style="fill:white;"/>
                            <path id="d" d="M20,0L940,0C951.046,0 960,8.954 960,20L960,64L0,64L0,20C0,8.954 8.954,0 20,0Z"/>
                            <path id="d1" serif:id="d" d="M20,0L940,0C951.046,0 960,8.954 960,20L960,64L0,64L0,20C0,8.954 8.954,0 20,0Z" style="fill:rgb(0,37,46);"/>
                            <path d="M272,32C272,25.377 266.623,20 260,20L84,20C77.377,20 72,25.377 72,32C72,38.623 77.377,44 84,44L260,44C266.623,44 272,38.623 272,32Z" style="fill:rgb(225,232,238);"/>
                            <g transform="matrix(1,0,0,1,864,22)">
                                <path d="M32,2C32,0.896 31.104,0 30,0L2,0C0.896,0 0,0.896 0,2C0,3.104 0.896,4 2,4L30,4C31.104,4 32,3.104 32,2Z" style="fill:rgb(216,216,216);"/>
                                <path d="M32,10C32,8.896 31.104,8 30,8L2,8C0.896,8 0,8.896 0,10C0,11.104 0.896,12 2,12L30,12C31.104,12 32,11.104 32,10Z" style="fill:rgb(216,216,216);"/>
                                <path d="M32,18C32,16.896 31.104,16 30,16L2,16C0.896,16 0,16.896 0,18C0,19.104 0.896,20 2,20L30,20C31.104,20 32,19.104 32,18Z" style="fill:rgb(216,216,216);"/>
                            </g>
                            <g transform="matrix(1,0,0,1,72,138)">
                                <circle cx="48" cy="48" r="48" style="fill:url(#_Linear3);"/>
                                <g transform="matrix(1,0,0,1,152,12)">
                                    <path d="M115,8C115,3.585 111.415,0 107,0L8,0C3.585,0 0,3.585 0,8C0,12.415 3.585,16 8,16L107,16C111.415,16 115,12.415 115,8Z" style="fill:rgb(225,232,238);"/>
                                    <path d="M400,36C400,33.792 398.208,32 396,32L4,32C1.792,32 0,33.792 0,36C0,38.208 1.792,40 4,40L396,40C398.208,40 400,38.208 400,36Z" style="fill:rgb(225,232,238);"/>
                                    <path d="M366.667,52C366.667,49.792 364.875,48 362.667,48L4,48C1.792,48 0,49.792 0,52C0,54.208 1.792,56 4,56L362.667,56C364.875,56 366.667,54.208 366.667,52Z" style="fill:rgb(225,232,238);"/>
                                    <path d="M333.333,68C333.333,65.792 331.541,64 329.333,64L4,64C1.792,64 0,65.792 0,68C0,70.208 1.792,72 4,72L329.333,72C331.541,72 333.333,70.208 333.333,68Z" style="fill:rgb(225,232,238);"/>
                                </g>
                                <g transform="matrix(1,0,0,1,600,36)">
                                    <circle cx="12" cy="12" r="12" style="fill:rgb(167,185,200);"/>
                                    <circle cx="76" cy="12" r="12" style="fill:rgb(167,185,200);"/>
                                    <circle cx="44" cy="12" r="12" style="fill:rgb(167,185,200);"/>
                                    <circle cx="108" cy="12" r="12" style="fill:rgb(167,185,200);"/>
                                    <circle cx="140" cy="12" r="12" style="fill:rgb(167,185,200);"/>
                                </g>
                            </g>
                            <g transform="matrix(1,0,0,1,72,274)">
                                <circle cx="45" cy="45" r="45" style="fill:url(#_Linear4);"/>
                                <g transform="matrix(1,0,0,1,149,9)">
                                    <path d="M115,8C115,3.585 111.415,0 107,0L8,0C3.585,0 0,3.585 0,8C0,12.415 3.585,16 8,16L107,16C111.415,16 115,12.415 115,8Z" style="fill:rgb(225,232,238);"/>
                                    <path d="M400,36C400,33.792 398.208,32 396,32L4,32C1.792,32 0,33.792 0,36C0,38.208 1.792,40 4,40L396,40C398.208,40 400,38.208 400,36Z" style="fill:rgb(225,232,238);"/>
                                    <path d="M366.667,52C366.667,49.792 364.875,48 362.667,48L4,48C1.792,48 0,49.792 0,52C0,54.208 1.792,56 4,56L362.667,56C364.875,56 366.667,54.208 366.667,52Z" style="fill:rgb(225,232,238);"/>
                                    <path d="M333.333,68C333.333,65.792 331.541,64 329.333,64L4,64C1.792,64 0,65.792 0,68C0,70.208 1.792,72 4,72L329.333,72C331.541,72 333.333,70.208 333.333,68Z" style="fill:rgb(225,232,238);"/>
                                </g>
                                <g transform="matrix(1,0,0,1,597,33)">
                                    <circle cx="12" cy="12" r="12" style="fill:rgb(167,185,200);"/>
                                    <circle cx="76" cy="12" r="12" style="fill:rgb(167,185,200);"/>
                                    <circle cx="44" cy="12" r="12" style="fill:rgb(167,185,200);"/>
                                </g>
                            </g>
                            <g transform="matrix(1,0,0,1,72,417)">
                                <circle cx="45" cy="45" r="45" style="fill:url(#_Linear5);"/>
                                <g transform="matrix(1,0,0,1,149,9)">
                                    <path d="M115,8C115,3.585 111.415,0 107,0L8,0C3.585,0 0,3.585 0,8C0,12.415 3.585,16 8,16L107,16C111.415,16 115,12.415 115,8Z" style="fill:rgb(225,232,238);"/>
                                    <path d="M400,36C400,33.792 398.208,32 396,32L4,32C1.792,32 0,33.792 0,36C0,38.208 1.792,40 4,40L396,40C398.208,40 400,38.208 400,36Z" style="fill:rgb(225,232,238);"/>
                                    <path d="M366.667,52C366.667,49.792 364.875,48 362.667,48L4,48C1.792,48 0,49.792 0,52C0,54.208 1.792,56 4,56L362.667,56C364.875,56 366.667,54.208 366.667,52Z" style="fill:rgb(225,232,238);"/>
                                    <path d="M333.333,68C333.333,65.792 331.541,64 329.333,64L4,64C1.792,64 0,65.792 0,68C0,70.208 1.792,72 4,72L329.333,72C331.541,72 333.333,70.208 333.333,68Z" style="fill:rgb(225,232,238);"/>
                                </g>
                                <g transform="matrix(1,0,0,1,597,33)">
                                    <circle cx="12" cy="12" r="12" style="fill:rgb(167,185,200);"/>
                                    <circle cx="76" cy="12" r="12" style="fill:rgb(167,185,200);"/>
                                    <circle cx="44" cy="12" r="12" style="fill:rgb(167,185,200);"/>
                                    <circle cx="108" cy="12" r="12" style="fill:rgb(167,185,200);"/>
                                </g>
                            </g>
                        </g>
                        <g transform="matrix(1,0,0,1,706,218)">
                            <path id="i" d="M320,45.692C320,20.474 299.526,0 274.308,0L45.692,0C20.474,0 0,20.474 0,45.692L0,466.308C0,491.526 20.474,512 45.692,512L274.308,512C299.526,512 320,491.526 320,466.308L320,45.692Z"/>
                            <path id="i1" serif:id="i" d="M320,45.692C320,20.474 299.526,0 274.308,0L45.692,0C20.474,0 0,20.474 0,45.692L0,466.308C0,491.526 20.474,512 45.692,512L274.308,512C299.526,512 320,491.526 320,466.308L320,45.692Z" style="fill:white;"/>
                        </g>
                        <g transform="matrix(1,0,0,1,706,218)">
                            <path id="k" d="M17.067,0L302.933,0C312.36,0 320,7.641 320,17.067L320,54.613L0,54.613L0,17.067C0,7.64 7.641,0 17.067,0Z"/>
                            <path id="k1" serif:id="k" d="M17.067,0L302.933,0C312.36,0 320,7.641 320,17.067L320,54.613L0,54.613L0,17.067C0,7.64 7.641,0 17.067,0Z" style="fill:rgb(0,37,46);"/>
                        </g>
                        <g transform="matrix(1,0,0,1,738.133,236.773)">
                            <path d="M104,10.24C104,4.588 99.412,0 93.76,0L10.24,0C4.588,0 0,4.588 0,10.24C0,15.892 4.588,20.48 10.24,20.48L93.76,20.48C99.412,20.48 104,15.892 104,10.24Z" style="fill:rgb(225,232,238);"/>
                            <g transform="matrix(1,0,0,1,226.427,1.707)">
                                <path d="M27.307,1.706C27.307,0.765 26.542,0 25.6,0L1.707,0C0.765,0 0,0.765 0,1.706C0,2.648 0.765,3.413 1.707,3.413L25.6,3.413C26.542,3.413 27.307,2.648 27.307,1.706Z" style="fill:rgb(216,216,216);"/>
                                <path d="M27.307,8.534C27.307,7.592 26.542,6.827 25.6,6.827L1.707,6.827C0.765,6.827 0,7.592 0,8.534C0,9.475 0.765,10.24 1.707,10.24L25.6,10.24C26.542,10.24 27.307,9.475 27.307,8.534Z" style="fill:rgb(216,216,216);"/>
                                <path d="M27.307,15.36C27.307,14.418 26.542,13.653 25.6,13.653L1.707,13.653C0.765,13.653 0,14.418 0,15.36C0,16.301 0.765,17.066 1.707,17.066L25.6,17.066C26.542,17.066 27.307,16.301 27.307,15.36Z" style="fill:rgb(216,216,216);"/>
                            </g>
                        </g>
                        <g transform="matrix(1,0,0,1,738,326)">
                            <circle cx="15" cy="15" r="15" style="fill:url(#_Linear6);"/>
                            <g transform="matrix(1,0,0,1,46,3)">
                                <path d="M57.5,2.463C57.5,1.104 56.396,0 55.037,0L2.463,0C1.104,0 0,1.104 0,2.463L0,2.87C0,4.229 1.104,5.333 2.463,5.333L55.037,5.333C56.396,5.333 57.5,4.229 57.5,2.87L57.5,2.463Z" style="fill:rgb(225,232,238);"/>
                                <path d="M200,12C200,11.265 199.402,10.667 198.667,10.667L1.333,10.667C0.598,10.667 0,11.265 0,12C0,12.736 0.598,13.334 1.333,13.334L198.667,13.334C199.402,13.334 200,12.736 200,12Z" style="fill:rgb(225,232,238);"/>
                                <path d="M183.333,17.334C183.333,16.598 182.735,16 181.999,16L1.334,16C0.598,16 0,16.598 0,17.334C0,18.069 0.598,18.667 1.334,18.667L181.999,18.667C182.735,18.667 183.333,18.069 183.333,17.334Z" style="fill:rgb(225,232,238);"/>
                                <path d="M166.667,22.667C166.667,21.931 166.069,21.333 165.334,21.333L1.333,21.333C0.598,21.333 0,21.931 0,22.667C0,23.402 0.598,24 1.333,24L165.334,24C166.069,24 166.667,23.402 166.667,22.667Z" style="fill:rgb(225,232,238);"/>
                            </g>
                        </g>
                        <g transform="matrix(1,0,0,1,738,464)">
                            <circle cx="15" cy="15" r="15" style="fill:url(#_Linear7);"/>
                            <g transform="matrix(1,0,0,1,46,3)">
                                <path d="M57.5,2.463C57.5,1.104 56.396,0 55.037,0L2.463,0C1.104,0 0,1.104 0,2.463L0,2.87C0,4.229 1.104,5.333 2.463,5.333L55.037,5.333C56.396,5.333 57.5,4.229 57.5,2.87L57.5,2.463Z" style="fill:rgb(225,232,238);"/>
                                <path d="M200,12C200,11.265 199.402,10.667 198.667,10.667L1.333,10.667C0.598,10.667 0,11.265 0,12C0,12.736 0.598,13.334 1.333,13.334L198.667,13.334C199.402,13.334 200,12.736 200,12Z" style="fill:rgb(225,232,238);"/>
                                <path d="M183.333,17.334C183.333,16.598 182.735,16 181.999,16L1.334,16C0.598,16 0,16.598 0,17.334C0,18.069 0.598,18.667 1.334,18.667L181.999,18.667C182.735,18.667 183.333,18.069 183.333,17.334Z" style="fill:rgb(225,232,238);"/>
                                <path d="M166.667,22.667C166.667,21.931 166.069,21.333 165.334,21.333L1.333,21.333C0.598,21.333 0,21.931 0,22.667C0,23.402 0.598,24 1.333,24L165.334,24C166.069,24 166.667,23.402 166.667,22.667Z" style="fill:rgb(225,232,238);"/>
                            </g>
                        </g>
                        <g transform="matrix(1,0,0,1,738,372)">
                            <g transform="matrix(1,0,0,1,46,3)">
                                <path d="M57.5,2.463C57.5,1.104 56.396,0 55.037,0L2.463,0C1.104,0 0,1.104 0,2.463L0,2.87C0,4.229 1.104,5.333 2.463,5.333L55.037,5.333C56.396,5.333 57.5,4.229 57.5,2.87L57.5,2.463Z" style="fill:rgb(225,232,238);"/>
                                <path d="M200,12C200,11.265 199.402,10.667 198.667,10.667L1.333,10.667C0.598,10.667 0,11.265 0,12C0,12.736 0.598,13.334 1.333,13.334L198.667,13.334C199.402,13.334 200,12.736 200,12Z" style="fill:rgb(225,232,238);"/>
                                <path d="M183.333,17.334C183.333,16.598 182.735,16 181.999,16L1.334,16C0.598,16 0,16.598 0,17.334C0,18.069 0.598,18.667 1.334,18.667L181.999,18.667C182.735,18.667 183.333,18.069 183.333,17.334Z" style="fill:rgb(225,232,238);"/>
                                <path d="M166.667,22.667C166.667,21.931 166.069,21.333 165.334,21.333L1.333,21.333C0.598,21.333 0,21.931 0,22.667C0,23.402 0.598,24 1.333,24L165.334,24C166.069,24 166.667,23.402 166.667,22.667Z" style="fill:rgb(225,232,238);"/>
                            </g>
                            <circle cx="15" cy="15" r="15" style="fill:url(#_Linear8);"/>
                        </g>
                        <g transform="matrix(1,0,0,1,738,510)">
                            <g transform="matrix(1,0,0,1,46,3)">
                                <path d="M57.5,2.463C57.5,1.104 56.396,0 55.037,0L2.463,0C1.104,0 0,1.104 0,2.463L0,2.87C0,4.229 1.104,5.333 2.463,5.333L55.037,5.333C56.396,5.333 57.5,4.229 57.5,2.87L57.5,2.463Z" style="fill:rgb(225,232,238);"/>
                                <path d="M200,12C200,11.265 199.402,10.667 198.667,10.667L1.333,10.667C0.598,10.667 0,11.265 0,12C0,12.736 0.598,13.334 1.333,13.334L198.667,13.334C199.402,13.334 200,12.736 200,12Z" style="fill:rgb(225,232,238);"/>
                                <path d="M183.333,17.334C183.333,16.598 182.735,16 181.999,16L1.334,16C0.598,16 0,16.598 0,17.334C0,18.069 0.598,18.667 1.334,18.667L181.999,18.667C182.735,18.667 183.333,18.069 183.333,17.334Z" style="fill:rgb(225,232,238);"/>
                                <path d="M166.667,22.667C166.667,21.931 166.069,21.333 165.334,21.333L1.333,21.333C0.598,21.333 0,21.931 0,22.667C0,23.402 0.598,24 1.333,24L165.334,24C166.069,24 166.667,23.402 166.667,22.667Z" style="fill:rgb(225,232,238);"/>
                            </g>
                            <circle cx="15" cy="15" r="15" style="fill:url(#_Linear9);"/>
                        </g>
                        <g transform="matrix(1,0,0,1,738,418)">
                            <g transform="matrix(1,0,0,1,46,3)">
                                <path d="M57.5,2.463C57.5,1.104 56.396,0 55.037,0L2.463,0C1.104,0 0,1.104 0,2.463L0,2.87C0,4.229 1.104,5.333 2.463,5.333L55.037,5.333C56.396,5.333 57.5,4.229 57.5,2.87L57.5,2.463Z" style="fill:rgb(225,232,238);"/>
                                <path d="M200,12C200,11.265 199.402,10.667 198.667,10.667L1.333,10.667C0.598,10.667 0,11.265 0,12C0,12.736 0.598,13.334 1.333,13.334L198.667,13.334C199.402,13.334 200,12.736 200,12Z" style="fill:rgb(225,232,238);"/>
                                <path d="M183.333,17.334C183.333,16.598 182.735,16 181.999,16L1.334,16C0.598,16 0,16.598 0,17.334C0,18.069 0.598,18.667 1.334,18.667L181.999,18.667C182.735,18.667 183.333,18.069 183.333,17.334Z" style="fill:rgb(225,232,238);"/>
                                <path d="M166.667,22.667C166.667,21.931 166.069,21.333 165.334,21.333L1.333,21.333C0.598,21.333 0,21.931 0,22.667C0,23.402 0.598,24 1.333,24L165.334,24C166.069,24 166.667,23.402 166.667,22.667Z" style="fill:rgb(225,232,238);"/>
                            </g>
                            <circle cx="15" cy="15" r="15" style="fill:url(#_Linear10);"/>
                        </g>
                        <g transform="matrix(1,0,0,1,738,556)">
                            <g transform="matrix(1,0,0,1,46,3)">
                                <path d="M57.5,2.463C57.5,1.104 56.396,0 55.037,0L2.463,0C1.104,0 0,1.104 0,2.463L0,2.87C0,4.229 1.104,5.333 2.463,5.333L55.037,5.333C56.396,5.333 57.5,4.229 57.5,2.87L57.5,2.463Z" style="fill:rgb(225,232,238);"/>
                                <path d="M200,12C200,11.265 199.402,10.667 198.667,10.667L1.333,10.667C0.598,10.667 0,11.265 0,12C0,12.736 0.598,13.334 1.333,13.334L198.667,13.334C199.402,13.334 200,12.736 200,12Z" style="fill:rgb(225,232,238);"/>
                                <path d="M183.333,17.334C183.333,16.598 182.735,16 181.999,16L1.334,16C0.598,16 0,16.598 0,17.334C0,18.069 0.598,18.667 1.334,18.667L181.999,18.667C182.735,18.667 183.333,18.069 183.333,17.334Z" style="fill:rgb(225,232,238);"/>
                                <path d="M166.667,22.667C166.667,21.931 166.069,21.333 165.334,21.333L1.333,21.333C0.598,21.333 0,21.931 0,22.667C0,23.402 0.598,24 1.333,24L165.334,24C166.069,24 166.667,23.402 166.667,22.667Z" style="fill:rgb(225,232,238);"/>
                            </g>
                            <circle cx="15" cy="15" r="15" style="fill:url(#_Linear11);"/>
                        </g>
                        <g transform="matrix(1,0,0,1,738,602)">
                            <circle cx="15" cy="15" r="15" style="fill:url(#_Linear12);"/>
                            <g transform="matrix(1,0,0,1,46,3)">
                                <path d="M57.5,2.463C57.5,1.104 56.396,0 55.037,0L2.463,0C1.104,0 0,1.104 0,2.463L0,2.87C0,4.229 1.104,5.333 2.463,5.333L55.037,5.333C56.396,5.333 57.5,4.229 57.5,2.87L57.5,2.463Z" style="fill:rgb(225,232,238);"/>
                                <path d="M200,12C200,11.265 199.402,10.667 198.667,10.667L1.333,10.667C0.598,10.667 0,11.265 0,12C0,12.736 0.598,13.334 1.333,13.334L198.667,13.334C199.402,13.334 200,12.736 200,12Z" style="fill:rgb(225,232,238);"/>
                                <path d="M183.333,17.334C183.333,16.598 182.735,16 181.999,16L1.334,16C0.598,16 0,16.598 0,17.334C0,18.069 0.598,18.667 1.334,18.667L181.999,18.667C182.735,18.667 183.333,18.069 183.333,17.334Z" style="fill:rgb(225,232,238);"/>
                                <path d="M166.667,22.667C166.667,21.931 166.069,21.333 165.334,21.333L1.333,21.333C0.598,21.333 0,21.931 0,22.667C0,23.402 0.598,24 1.333,24L165.334,24C166.069,24 166.667,23.402 166.667,22.667Z" style="fill:rgb(225,232,238);"/>
                            </g>
                        </g>
                        <g transform="matrix(1,0,0,1,738,648)">
                            <g transform="matrix(1,0,0,1,46,3)">
                                <path d="M57.5,2.463C57.5,1.104 56.396,0 55.037,0L2.463,0C1.104,0 0,1.104 0,2.463L0,2.87C0,4.229 1.104,5.333 2.463,5.333L55.037,5.333C56.396,5.333 57.5,4.229 57.5,2.87L57.5,2.463Z" style="fill:rgb(225,232,238);"/>
                                <path d="M200,12C200,11.265 199.402,10.667 198.667,10.667L1.333,10.667C0.598,10.667 0,11.265 0,12C0,12.736 0.598,13.334 1.333,13.334L198.667,13.334C199.402,13.334 200,12.736 200,12Z" style="fill:rgb(225,232,238);"/>
                                <path d="M183.333,17.334C183.333,16.598 182.735,16 181.999,16L1.334,16C0.598,16 0,16.598 0,17.334C0,18.069 0.598,18.667 1.334,18.667L181.999,18.667C182.735,18.667 183.333,18.069 183.333,17.334Z" style="fill:rgb(225,232,238);"/>
                                <path d="M166.667,22.667C166.667,21.931 166.069,21.333 165.334,21.333L1.333,21.333C0.598,21.333 0,21.931 0,22.667C0,23.402 0.598,24 1.333,24L165.334,24C166.069,24 166.667,23.402 166.667,22.667Z" style="fill:rgb(225,232,238);"/>
                            </g>
                            <circle cx="15" cy="15" r="15" style="fill:url(#_Linear13);"/>
                        </g>
                        <g transform="matrix(2.67723,0,0,2.67723,-1328.25,-5728.03)">
                            <circle cx="117.774" cy="2146.89" r="24.092" style="fill:rgb(255,81,192);"/>
                        </g>
                    </g>
                </g>
            </g>
        </g>
        <g transform="matrix(1.10466,0,0,1.18123,16.972,2001.63)">
            <g transform="matrix(0.905254,0,0,0.846574,-15.3639,-1694.53)">
                <path d="M405.739,2127.38C405.739,2124.85 403.683,2122.8 401.151,2122.8L162.853,2122.8C160.321,2122.8 158.265,2124.85 158.265,2127.38L158.265,2166.39C158.265,2168.92 160.321,2170.98 162.853,2170.98L401.151,2170.98C403.683,2170.98 405.739,2168.92 405.739,2166.39L405.739,2127.38Z" style="fill:rgb(234,234,234);stroke:rgb(0,37,46);stroke-width:5px;"/>
            </g>
        </g>
        <g transform="matrix(1.10466,0,0,1.18123,16.972,2001.63)">
            <g transform="matrix(0.82441,0,0,0.65302,204.14,-918.355)">
                <path d="M405.739,2127.38C405.739,2124.85 403.998,2122.8 401.853,2122.8L162.151,2122.8C160.006,2122.8 158.265,2124.85 158.265,2127.38L158.265,2166.39C158.265,2168.92 160.006,2170.98 162.151,2170.98L401.853,2170.98C403.998,2170.98 405.739,2168.92 405.739,2166.39L405.739,2127.38Z" style="fill:rgb(229,229,229);stroke:rgb(0,37,46);stroke-width:5.92px;"/>
            </g>
        </g>
        <g transform="matrix(1.10466,0,0,1.18123,16.972,2001.63)">
            <g transform="matrix(1.36006,0,0,0.285989,119.364,-98.3542)">
                <path d="M405.739,2127.38C405.739,2124.85 405.277,2122.8 404.707,2122.8L159.297,2122.8C158.727,2122.8 158.265,2124.85 158.265,2127.38L158.265,2166.39C158.265,2168.92 158.727,2170.98 159.297,2170.98L404.707,2170.98C405.277,2170.98 405.739,2168.92 405.739,2166.39L405.739,2127.38Z" style="fill:rgb(229,229,229);"/>
            </g>
        </g>
        <g transform="matrix(1.10466,0,0,1.18123,16.972,2001.63)">
            <g transform="matrix(0.905254,0,0,1.13417,-68.602,-1939.74)">
                <path d="M405.739,2127.38C405.739,2124.85 402.985,2122.8 399.592,2122.8L164.412,2122.8C161.019,2122.8 158.265,2124.85 158.265,2127.38L158.265,2166.39C158.265,2168.92 161.019,2170.98 164.412,2170.98L399.592,2170.98C402.985,2170.98 405.739,2168.92 405.739,2166.39L405.739,2127.38Z" style="fill:rgb(234,249,255);"/>
            </g>
        </g>
        <g transform="matrix(1.10466,0,0,1.18123,16.972,2001.63)">
            <g transform="matrix(0.805028,0,0,0.485296,-52.7398,-727.026)">
                <path d="M405.739,2146.89C405.739,2133.59 398.78,2122.8 390.209,2122.8L173.795,2122.8C165.224,2122.8 158.265,2133.59 158.265,2146.89C158.265,2160.18 165.224,2170.98 173.795,2170.98L390.209,2170.98C398.78,2170.98 405.739,2160.18 405.739,2146.89Z" style="fill:rgb(255,81,192);"/>
            </g>
        </g>
        <g transform="matrix(1.10466,0,0,1.18123,16.972,2001.63)">
            <g transform="matrix(1.03282,0,0,0.248658,-88.7912,-301.981)">
                <path d="M405.739,2127.38C405.739,2124.85 405.21,2122.8 404.558,2122.8L159.446,2122.8C158.794,2122.8 158.265,2124.85 158.265,2127.38L158.265,2166.39C158.265,2168.92 158.794,2170.98 159.446,2170.98L404.558,2170.98C405.21,2170.98 405.739,2168.92 405.739,2166.39L405.739,2127.38Z" style="fill:rgb(229,229,229);"/>
            </g>
        </g>
        <g transform="matrix(1.10466,0,0,1.18123,16.972,2001.63)">
            <g transform="matrix(1.17811,0,0,0.248658,-111.786,-283.659)">
                <path d="M405.739,2127.38C405.739,2124.85 405.275,2122.8 404.704,2122.8L159.3,2122.8C158.729,2122.8 158.265,2124.85 158.265,2127.38L158.265,2166.39C158.265,2168.92 158.729,2170.98 159.3,2170.98L404.704,2170.98C405.275,2170.98 405.739,2168.92 405.739,2166.39L405.739,2127.38Z" style="fill:rgb(229,229,229);"/>
            </g>
        </g>
        <g transform="matrix(1.10466,0,0,1.18123,16.972,2001.63)">
            <g transform="matrix(1.10444,0,0,0.248658,-100.126,-266.398)">
                <path d="M405.739,2127.38C405.739,2124.85 405.244,2122.8 404.635,2122.8L159.37,2122.8C158.76,2122.8 158.265,2124.85 158.265,2127.38L158.265,2166.39C158.265,2168.92 158.76,2170.98 159.37,2170.98L404.635,2170.98C405.244,2170.98 405.739,2168.92 405.739,2166.39L405.739,2127.38Z" style="fill:rgb(229,229,229);"/>
            </g>
        </g>
    </g>
    <defs>
        <linearGradient id="_Linear3" x1="0" y1="0" x2="1" y2="0" gradientUnits="userSpaceOnUse" gradientTransform="matrix(58.7376,136.097,-136.097,58.7376,14.2186,-21.4675)"><stop offset="0" style="stop-color:rgb(250,217,97);stop-opacity:1"/><stop offset="1" style="stop-color:rgb(255,82,193);stop-opacity:1"/></linearGradient>
        <linearGradient id="_Linear4" x1="0" y1="0" x2="1" y2="0" gradientUnits="userSpaceOnUse" gradientTransform="matrix(5.51091e-15,90,-90,5.51091e-15,45,0)"><stop offset="0" style="stop-color:rgb(0,199,250);stop-opacity:1"/><stop offset="1" style="stop-color:rgb(0,125,250);stop-opacity:1"/></linearGradient>
        <linearGradient id="_Linear5" x1="0" y1="0" x2="1" y2="0" gradientUnits="userSpaceOnUse" gradientTransform="matrix(55.1043,100.12,-100.12,55.1043,26.0757,0)"><stop offset="0" style="stop-color:rgb(255,82,193);stop-opacity:1"/><stop offset="1" style="stop-color:rgb(153,82,255);stop-opacity:1"/></linearGradient>
        <linearGradient id="_Linear6" x1="0" y1="0" x2="1" y2="0" gradientUnits="userSpaceOnUse" gradientTransform="matrix(18.3555,42.5304,-42.5304,18.3555,4.4433,-6.7086)"><stop offset="0" style="stop-color:rgb(250,217,97);stop-opacity:1"/><stop offset="1" style="stop-color:rgb(255,82,193);stop-opacity:1"/></linearGradient>
        <linearGradient id="_Linear7" x1="0" y1="0" x2="1" y2="0" gradientUnits="userSpaceOnUse" gradientTransform="matrix(18.3555,42.5304,-42.5304,18.3555,4.4433,-6.7086)"><stop offset="0" style="stop-color:rgb(250,217,97);stop-opacity:1"/><stop offset="1" style="stop-color:rgb(255,82,193);stop-opacity:1"/></linearGradient>
        <linearGradient id="_Linear8" x1="0" y1="0" x2="1" y2="0" gradientUnits="userSpaceOnUse" gradientTransform="matrix(1.83697e-15,30,-30,1.83697e-15,15,0)"><stop offset="0" style="stop-color:rgb(0,199,250);stop-opacity:1"/><stop offset="1" style="stop-color:rgb(0,125,250);stop-opacity:1"/></linearGradient>
        <linearGradient id="_Linear9" x1="0" y1="0" x2="1" y2="0" gradientUnits="userSpaceOnUse" gradientTransform="matrix(1.83697e-15,30,-30,1.83697e-15,15,0)"><stop offset="0" style="stop-color:rgb(0,199,250);stop-opacity:1"/><stop offset="1" style="stop-color:rgb(0,125,250);stop-opacity:1"/></linearGradient>
        <linearGradient id="_Linear10" x1="0" y1="0" x2="1" y2="0" gradientUnits="userSpaceOnUse" gradientTransform="matrix(18.3681,33.3732,-33.3732,18.3681,8.6919,0)"><stop offset="0" style="stop-color:rgb(255,82,193);stop-opacity:1"/><stop offset="1" style="stop-color:rgb(153,82,255);stop-opacity:1"/></linearGradient>
        <linearGradient id="_Linear11" x1="0" y1="0" x2="1" y2="0" gradientUnits="userSpaceOnUse" gradientTransform="matrix(18.3681,33.3732,-33.3732,18.3681,8.6919,0)"><stop offset="0" style="stop-color:rgb(255,82,193);stop-opacity:1"/><stop offset="1" style="stop-color:rgb(153,82,255);stop-opacity:1"/></linearGradient>
        <linearGradient id="_Linear12" x1="0" y1="0" x2="1" y2="0" gradientUnits="userSpaceOnUse" gradientTransform="matrix(18.3555,42.5304,-42.5304,18.3555,4.4433,-6.7086)"><stop offset="0" style="stop-color:rgb(250,217,97);stop-opacity:1"/><stop offset="1" style="stop-color:rgb(255,82,193);stop-opacity:1"/></linearGradient>
        <linearGradient id="_Linear13" x1="0" y1="0" x2="1" y2="0" gradientUnits="userSpaceOnUse" gradientTransform="matrix(1.83697e-15,30,-30,1.83697e-15,15,0)"><stop offset="0" style="stop-color:rgb(0,199,250);stop-opacity:1"/><stop offset="1" style="stop-color:rgb(0,125,250);stop-opacity:1"/></linearGradient>
    </defs>
</svg>
