
<svg width="100%" height="100%" viewBox="0 0 890 620" version="1.1" xmlns="http://www.w3.org/2000/svg" xmlns:xlink="http://www.w3.org/1999/xlink" xml:space="preserve" xmlns:serif="http://www.serif.com/" style="fill-rule:evenodd;clip-rule:evenodd;stroke-linecap:round;stroke-linejoin:round;stroke-miterlimit:1.5;">
    <g transform="matrix(1,0,0,1,-1108.89,0)">
        <g id="Artboard1" transform="matrix(0.951471,0,0,0.916207,1108.89,21.5329)">
            <rect x="0" y="-23.502" width="935.394" height="676.703" style="fill:none;"/>
            <g transform="matrix(1.27306,0,0,1.51384,-11.0903,-10.2525)">
                <g transform="matrix(0.641249,0,0,0.530167,-9.761,-29.1189)">
                    <path d="M913.16,72.415C913.16,55.803 900.393,42.317 884.666,42.317L62.344,42.317C46.618,42.317 33.85,55.803 33.85,72.415L33.85,625.477C33.85,642.088 46.618,655.575 62.344,655.575L884.666,655.575C900.393,655.575 913.16,642.088 913.16,625.477L913.16,72.415Z" style="fill:rgb(249,249,249);"/>
                    <clipPath id="_clip1">
                        <path d="M913.16,72.415C913.16,55.803 900.393,42.317 884.666,42.317L62.344,42.317C46.618,42.317 33.85,55.803 33.85,72.415L33.85,625.477C33.85,642.088 46.618,655.575 62.344,655.575L884.666,655.575C900.393,655.575 913.16,642.088 913.16,625.477L913.16,72.415Z"/>
                    </clipPath>
                    <g clip-path="url(#_clip1)">
                        <g>
                            <g transform="matrix(1,0,0,0.764655,15.2218,32.3063)">
                                <rect x="18.628" y="13.091" width="879.31" height="79.165" style="fill:rgb(200,199,201);"/>
                            </g>
                            <g transform="matrix(0.885562,0,0,0.82939,23.1183,16.9372)">
                                <circle cx="74.148" cy="67.093" r="14.419" style="fill:rgb(254,95,87);"/>
                            </g>
                            <g transform="matrix(0.885562,0,0,0.82939,61.2855,16.9372)">
                                <circle cx="74.148" cy="67.093" r="14.419" style="fill:rgb(254,188,46);"/>
                            </g>
                            <g transform="matrix(0.885562,0,0,0.82939,99.4526,16.9372)">
                                <circle cx="74.148" cy="67.093" r="14.419" style="fill:rgb(40,200,64);"/>
                            </g>
                        </g>
                    </g>
                </g>
                <g transform="matrix(0.761966,0,0,0.939618,-24.2038,-431.175)">
                    <rect x="123.806" y="512.727" width="223.212" height="21.927" style="fill:rgb(39,125,161);stroke:rgb(232,232,232);stroke-width:3.54px;"/>
                </g>
                <g transform="matrix(0.641249,0,0,0.530167,0,-23.5022)">
                    <rect x="641.204" y="241.891" width="69.164" height="19.27" style="fill:rgb(232,232,232);"/>
                </g>
                <g transform="matrix(0.641249,0,0,0.530167,0,21.8826)">
                    <rect x="641.204" y="241.891" width="69.164" height="19.27" style="fill:rgb(232,232,232);"/>
                </g>
                <g transform="matrix(0.641249,0,0,0.530167,0,66.2935)">
                    <rect x="641.204" y="241.891" width="69.164" height="19.27" style="fill:rgb(232,232,232);"/>
                </g>
                <g transform="matrix(0.641249,0,0,0.530167,0,108.784)">
                    <rect x="641.204" y="241.891" width="69.164" height="19.27" style="fill:rgb(232,232,232);"/>
                </g>
                <g transform="matrix(0.641249,0,0,1.22598,0.271831,-179.081)">
                    <rect x="641.204" y="241.891" width="69.164" height="19.27" style="fill:rgb(232,232,232);"/>
                </g>
                <g transform="matrix(0.641249,0,0,1.22598,0.271831,-133.696)">
                    <rect x="641.204" y="241.891" width="69.164" height="19.27" style="fill:rgb(232,232,232);"/>
                </g>
                <g transform="matrix(0.641249,0,0,1.22598,0.271831,-89.285)">
                    <rect x="641.204" y="241.891" width="69.164" height="19.27" style="fill:rgb(232,232,232);"/>
                </g>
                <g transform="matrix(0.641249,0,0,1.22598,0.271831,-46.7946)">
                    <rect x="641.204" y="241.891" width="69.164" height="19.27" style="fill:rgb(232,232,232);"/>
                </g>
                <g transform="matrix(0.641249,0,0,0.484336,0,-0.0033924)">
                    <rect x="123.806" y="512.727" width="223.212" height="21.927" style="fill:rgb(232,232,232);"/>
                </g>
                <g transform="matrix(0.895348,0,0,0.246146,-31.459,135.075)">
                    <rect x="123.806" y="512.727" width="223.212" height="21.927" style="fill:rgb(232,232,232);"/>
                </g>
                <g transform="matrix(1.10122,0,0,0.246146,-56.9476,142.134)">
                    <rect x="123.806" y="512.727" width="223.212" height="21.927" style="fill:rgb(232,232,232);"/>
                </g>
                <g transform="matrix(1.00281,0,0,0.246146,-44.7639,149.497)">
                    <rect x="123.806" y="512.727" width="223.212" height="21.927" style="fill:rgb(232,232,232);"/>
                </g>
                <g transform="matrix(0.641249,0,0,0.530167,0,-23.5022)">
                    <path d="M831.082,130.369C831.082,127.709 829.037,125.55 826.519,125.55L95.004,125.55C92.485,125.55 90.441,127.709 90.441,130.369L90.441,190.209C90.441,192.869 92.485,195.029 95.004,195.029L826.519,195.029C829.037,195.029 831.082,192.869 831.082,190.209L831.082,130.369Z" style="fill:none;stroke:rgb(232,232,232);stroke-width:7.93px;"/>
                </g>
                <g transform="matrix(0.446236,0,0,2.99619,17.6372,-286.424)">
                    <path d="M831.082,127.478C831.082,126.414 824.438,125.55 816.254,125.55L105.269,125.55C97.085,125.55 90.441,126.414 90.441,127.478L90.441,193.1C90.441,194.164 97.085,195.029 105.269,195.029L816.254,195.029C824.438,195.029 831.082,194.164 831.082,193.1L831.082,127.478Z" style="fill:none;stroke:rgb(232,232,232);stroke-width:2.02px;"/>
                </g>
                <g transform="matrix(0.41258,8.60786e-21,6.11356e-20,1.88644,32.4242,-131.505)">
                    <path d="M831.082,127.478C831.082,126.414 826.557,125.55 820.984,125.55L100.538,125.55C94.965,125.55 90.441,126.414 90.441,127.478L90.441,193.1C90.441,194.164 94.965,195.029 100.538,195.029L820.984,195.029C826.557,195.029 831.082,194.164 831.082,193.1L831.082,127.478Z" style="fill:rgb(159,199,95);"/>
                </g>
                <g transform="matrix(0.0839259,2.38786e-21,1.2436e-20,0.523306,453.487,39.0395)">
                    <path d="M831.082,127.478C831.082,126.414 824.912,125.55 817.312,125.55L104.211,125.55C96.611,125.55 90.441,126.414 90.441,127.478L90.441,193.1C90.441,194.164 96.611,195.029 104.211,195.029L817.312,195.029C824.912,195.029 831.082,194.164 831.082,193.1L831.082,127.478Z" style="fill:rgb(159,199,95);"/>
                </g>
                <g transform="matrix(0.0839259,2.38786e-21,1.2436e-20,0.523306,453.487,84.4243)">
                    <path d="M831.082,127.478C831.082,126.414 824.912,125.55 817.312,125.55L104.211,125.55C96.611,125.55 90.441,126.414 90.441,127.478L90.441,193.1C90.441,194.164 96.611,195.029 104.211,195.029L817.312,195.029C824.912,195.029 831.082,194.164 831.082,193.1L831.082,127.478Z" style="fill:rgb(159,199,95);"/>
                </g>
                <g transform="matrix(0.0839259,2.38786e-21,1.2436e-20,0.523306,453.487,128.835)">
                    <path d="M831.082,127.478C831.082,126.414 824.912,125.55 817.312,125.55L104.211,125.55C96.611,125.55 90.441,126.414 90.441,127.478L90.441,193.1C90.441,194.164 96.611,195.029 104.211,195.029L817.312,195.029C824.912,195.029 831.082,194.164 831.082,193.1L831.082,127.478Z" style="fill:rgb(159,199,95);"/>
                </g>
                <g transform="matrix(0.0839259,2.38786e-21,1.2436e-20,0.523306,453.487,171.326)">
                    <path d="M831.082,127.478C831.082,126.414 824.912,125.55 817.312,125.55L104.211,125.55C96.611,125.55 90.441,126.414 90.441,127.478L90.441,193.1C90.441,194.164 96.611,195.029 104.211,195.029L817.312,195.029C824.912,195.029 831.082,194.164 831.082,193.1L831.082,127.478Z" style="fill:rgb(159,199,95);"/>
                </g>
                <g transform="matrix(0.41258,0,0,0.618905,32.4242,165.627)">
                    <path d="M831.082,127.478C831.082,126.414 829.597,125.55 827.769,125.55L93.754,125.55C91.925,125.55 90.441,126.414 90.441,127.478L90.441,193.1C90.441,194.164 91.925,195.029 93.754,195.029L827.769,195.029C829.597,195.029 831.082,194.164 831.082,193.1L831.082,127.478Z" style="fill:none;stroke:rgb(206,206,206);stroke-width:7.12px;"/>
                </g>
                <g transform="matrix(0.176116,0,0,2.99619,385.635,-286.424)">
                    <path d="M831.082,126.605C831.082,126.023 821.87,125.55 810.523,125.55L111,125.55C99.653,125.55 90.441,126.023 90.441,126.605L90.441,193.973C90.441,194.556 99.653,195.029 111,195.029L810.523,195.029C821.87,195.029 831.082,194.556 831.082,193.973L831.082,126.605Z" style="fill:none;stroke:rgb(232,232,232);stroke-width:2.04px;"/>
                </g>
                <g transform="matrix(0.641249,0,0,0.484336,0,-0.0033924)">
                    <rect x="123.806" y="512.727" width="223.212" height="21.927" style="fill:rgb(232,232,232);"/>
                </g>
                <g transform="matrix(0.895348,0,0,0.246146,-31.459,135.075)">
                    <rect x="123.806" y="512.727" width="223.212" height="21.927" style="fill:rgb(232,232,232);"/>
                </g>
                <g transform="matrix(1.10122,0,0,0.246146,-56.9476,142.134)">
                    <rect x="123.806" y="512.727" width="223.212" height="21.927" style="fill:rgb(232,232,232);"/>
                </g>
                <g transform="matrix(1.00281,0,0,0.246146,-44.7639,149.497)">
                    <rect x="123.806" y="512.727" width="223.212" height="21.927" style="fill:rgb(232,232,232);"/>
                </g>
                <g transform="matrix(0.641249,0,0,0.530167,0,-23.5022)">
                    <path d="M831.082,130.369C831.082,127.709 829.037,125.55 826.519,125.55L95.004,125.55C92.485,125.55 90.441,127.709 90.441,130.369L90.441,190.209C90.441,192.869 92.485,195.029 95.004,195.029L826.519,195.029C829.037,195.029 831.082,192.869 831.082,190.209L831.082,130.369Z" style="fill:none;stroke:rgb(232,232,232);stroke-width:7.93px;"/>
                </g>
                <g transform="matrix(0.279056,0,0,0.570431,484.72,62.2307)">
                    <path d="M913.16,60.754C913.16,50.578 893.823,42.317 870.005,42.317L77.006,42.317C53.188,42.317 33.85,50.578 33.85,60.754L33.85,637.137C33.85,647.313 53.188,655.575 77.006,655.575L870.005,655.575C893.823,655.575 913.16,647.313 913.16,637.137L913.16,60.754Z" style="fill:rgb(249,249,249);"/>
                    <clipPath id="_clip2">
                        <path d="M913.16,60.754C913.16,50.578 893.823,42.317 870.005,42.317L77.006,42.317C53.188,42.317 33.85,50.578 33.85,60.754L33.85,637.137C33.85,647.313 53.188,655.575 77.006,655.575L870.005,655.575C893.823,655.575 913.16,647.313 913.16,637.137L913.16,60.754Z"/>
                    </clipPath>
                    <g clip-path="url(#_clip2)">
                        <g>
                            <g transform="matrix(1,0,0,0.764655,15.2218,32.3063)">
                                <rect x="18.628" y="13.091" width="879.31" height="79.165" style="fill:rgb(200,199,201);"/>
                            </g>
                            <g transform="matrix(1.55635,0,0,3.82974,326.904,-1357.54)">
                                <rect x="123.806" y="512.727" width="223.212" height="21.927" style="fill:rgb(232,232,232);"/>
                            </g>
                            <g transform="matrix(2.94794,0,0,1.19232,-1961.8,-264.816)">
                                <rect x="703.99" y="379.23" width="252.721" height="213.588" style="fill:rgb(159,199,95);"/>
                            </g>
                            <g transform="matrix(1.47397,0,0,0.547324,-924.137,365.585)">
                                <rect x="703.99" y="379.23" width="252.721" height="213.588" style="fill:rgb(159,199,95);"/>
                            </g>
                        </g>
                    </g>
                    <path d="M913.16,60.754C913.16,50.578 893.823,42.317 870.005,42.317L77.006,42.317C53.188,42.317 33.85,50.578 33.85,60.754L33.85,637.137C33.85,647.313 53.188,655.575 77.006,655.575L870.005,655.575C893.823,655.575 913.16,647.313 913.16,637.137L913.16,60.754Z" style="fill:none;stroke:rgb(96,96,96);stroke-width:0.82px;"/>
                </g>
                <g transform="matrix(1.09214,0,0,1.09214,-46.86,-33.0473)">
                    <g transform="matrix(0.258446,0,0,0.618905,492.426,247.868)">
                        <path d="M831.082,127.478C831.082,126.414 828.712,125.55 825.793,125.55L95.729,125.55C92.811,125.55 90.441,126.414 90.441,127.478L90.441,193.1C90.441,194.164 92.811,195.029 95.729,195.029L825.793,195.029C828.712,195.029 831.082,194.164 831.082,193.1L831.082,127.478Z" style="fill:none;stroke:rgb(206,206,206);stroke-width:4.25px;"/>
                    </g>
                    <g transform="matrix(0.465396,0,0,0.419237,465.534,115.736)">
                        <rect x="123.806" y="512.727" width="223.212" height="21.927" style="fill:rgb(232,232,232);"/>
                    </g>
                    <g transform="matrix(0.761966,0,0,0.939618,413.212,-335.429)">
                        <rect x="123.806" y="512.727" width="223.212" height="21.927" style="fill:rgb(39,125,161);stroke:rgb(232,232,232);stroke-width:3.24px;"/>
                    </g>
                    <g transform="matrix(0.39767,0,0,0.590618,570.263,83.773)">
                        <rect x="123.806" y="512.727" width="223.212" height="21.927" style="fill:rgb(232,232,232);"/>
                    </g>
                    <g transform="matrix(0.649813,0,0,0.229837,442.703,225.798)">
                        <rect x="123.806" y="512.727" width="223.212" height="21.927" style="fill:rgb(232,232,232);"/>
                    </g>
                    <g transform="matrix(0.799229,0,0,0.229696,424.204,232.93)">
                        <rect x="123.806" y="512.727" width="223.212" height="21.927" style="fill:rgb(232,232,232);"/>
                    </g>
                    <g transform="matrix(0.727807,0,0,0.229696,433.046,240.293)">
                        <rect x="123.806" y="512.727" width="223.212" height="21.927" style="fill:rgb(232,232,232);"/>
                    </g>
                    <g transform="matrix(0.280581,0,0,2.90539,481.64,-189.208)">
                        <path d="M831.082,127.284C831.082,126.327 821.87,125.55 810.523,125.55L111,125.55C99.653,125.55 90.441,126.327 90.441,127.284L90.441,193.295C90.441,194.252 99.653,195.029 111,195.029L810.523,195.029C821.87,195.029 831.082,194.252 831.082,193.295L831.082,127.284Z" style="fill:none;stroke:rgb(232,232,232);stroke-width:1.28px;"/>
                    </g>
                    <g transform="matrix(0.641249,0,0,0.42563,73.2428,2.39491)">
                        <path d="M957.939,274.628C957.939,272.98 956.922,271.642 955.669,271.642L721.3,271.642C720.048,271.642 719.03,272.98 719.03,274.628L719.03,302.192C719.03,303.841 720.048,305.179 721.3,305.179L955.669,305.179C956.922,305.179 957.939,303.841 957.939,302.192L957.939,274.628Z" style="fill:rgb(249,249,249);"/>
                    </g>
                </g>
            </g>
        </g>
    </g>
</svg>
