
<svg width="100%" height="100%" viewBox="0 0 537 522" style="fill-rule:evenodd;clip-rule:evenodd;stroke-linejoin:round;stroke-miterlimit:2;">
    <g transform="matrix(1,0,0,1,-8624.8,-3076.17)">
        <g id="sun" transform="matrix(1.23164,0,0,1.06984,451.869,-243.437)">
            <rect x="6635.84" y="3102.91" width="435.283" height="487.639" style="fill:none;stroke:var(--marker)"/>
            <g transform="matrix(4.85346,0,0,5.18601,6611.47,3087.54)">
                <g id="newspaper-outline">
                    <path d="M49.813,7.938C49.727,7.953 49.641,7.977 49.563,8C48.633,8.211 47.977,9.047 48,10L48,22C47.992,22.719 48.367,23.391 48.992,23.758C49.617,24.117 50.383,24.117 51.008,23.758C51.633,23.391 52.008,22.719 52,22L52,10C52.023,9.422 51.789,8.867 51.375,8.477C50.953,8.078 50.383,7.883 49.813,7.938ZM21.313,19.688C20.563,19.82 19.961,20.367 19.75,21.094C19.539,21.828 19.758,22.609 20.313,23.125L28.813,31.625C29.297,32.219 30.07,32.492 30.82,32.32C31.563,32.148 32.148,31.563 32.32,30.82C32.492,30.07 32.219,29.297 31.625,28.813L23.125,20.313C22.711,19.867 22.109,19.641 21.5,19.688L21.313,19.688ZM78.063,19.688C77.609,19.75 77.188,19.977 76.875,20.313L68.375,28.813C67.781,29.297 67.508,30.07 67.68,30.82C67.852,31.563 68.438,32.148 69.18,32.32C69.93,32.492 70.703,32.219 71.188,31.625L79.688,23.125C80.313,22.531 80.492,21.602 80.125,20.82C79.75,20.031 78.922,19.578 78.063,19.688ZM49.813,30C49.75,30.016 49.688,30.039 49.625,30.063C49.5,30.07 49.375,30.094 49.25,30.125C49.227,30.148 49.211,30.164 49.188,30.188C38.578,30.641 30,39.281 30,50C30,61.008 38.992,70 50,70C61.008,70 70,61.008 70,50C70,39.32 61.492,30.711 50.938,30.188C50.867,30.188 50.82,30.125 50.75,30.125C50.547,30.047 50.336,30.008 50.125,30L49.813,30ZM49.875,34L50.188,34C58.938,34.102 66,41.227 66,50C66,58.844 58.844,66 50,66C41.164,66 34,58.844 34,50C34,41.203 41.094,34.07 49.875,34ZM9.438,48C8.336,48.156 7.563,49.18 7.719,50.281C7.875,51.383 8.898,52.156 10,52L22,52C22.719,52.008 23.391,51.633 23.758,51.008C24.117,50.383 24.117,49.617 23.758,48.992C23.391,48.367 22.719,47.992 22,48L9.438,48ZM77.438,48C76.336,48.156 75.563,49.18 75.719,50.281C75.875,51.383 76.898,52.156 78,52L90,52C90.719,52.008 91.391,51.633 91.758,51.008C92.117,50.383 92.117,49.617 91.758,48.992C91.391,48.367 90.719,47.992 90,48L77.438,48ZM30,67.75C29.547,67.813 29.125,68.039 28.813,68.375L20.313,76.875C19.719,77.359 19.445,78.133 19.617,78.883C19.789,79.625 20.375,80.211 21.117,80.383C21.867,80.555 22.641,80.281 23.125,79.688L31.625,71.188C32.219,70.617 32.398,69.734 32.078,68.977C31.766,68.219 31.008,67.734 30.188,67.75L30,67.75ZM69.375,67.75C68.625,67.883 68.023,68.43 67.813,69.156C67.602,69.891 67.82,70.672 68.375,71.188L76.875,79.688C77.359,80.281 78.133,80.555 78.883,80.383C79.625,80.211 80.211,79.625 80.383,78.883C80.555,78.133 80.281,77.359 79.688,76.875L71.188,68.375C70.813,67.977 70.297,67.758 69.75,67.75L69.375,67.75ZM49.813,75.938C49.727,75.953 49.641,75.977 49.563,76C48.633,76.211 47.977,77.047 48,78L48,90C47.992,90.719 48.367,91.391 48.992,91.758C49.617,92.117 50.383,92.117 51.008,91.758C51.633,91.391 52.008,90.719 52,90L52,78C52.023,77.422 51.789,76.867 51.375,76.477C50.953,76.078 50.383,75.883 49.813,75.938Z" style="fill-rule:nonzero;stroke:black;stroke-width:3.47px;"/>
                </g>
            </g>
        </g>
    </g>
</svg>
