
<svg width="100%" height="100%" viewBox="0 0 1034 712" version="1.1" xmlns="http://www.w3.org/2000/svg" xmlns:xlink="http://www.w3.org/1999/xlink" xml:space="preserve" xmlns:serif="http://www.serif.com/" style="fill-rule:evenodd;clip-rule:evenodd;stroke-linecap:round;stroke-linejoin:round;stroke-miterlimit:1.5;">
    <g transform="matrix(1,0,0,1,-6.60107,-3573.84)">
        <g id="Artboard1" transform="matrix(1.10466,0,0,1.05097,6.60107,3598.54)">
            <rect x="0" y="-23.502" width="935.394" height="676.703" style="fill:none;"/>
            <g transform="matrix(1.50032,0,0,1.79472,-1.05851,18.6777)">
                <g transform="matrix(0.603368,0,0,0.530167,-8.47873,-29.1189)">
                    <path d="M913.16,72.415C913.16,55.803 899.674,42.317 883.062,42.317L63.949,42.317C47.337,42.317 33.85,55.803 33.85,72.415L33.85,625.477C33.85,642.088 47.337,655.575 63.949,655.575L883.062,655.575C899.674,655.575 913.16,642.088 913.16,625.477L913.16,72.415Z" style="fill:rgb(249,249,249);"/>
                    <clipPath id="_clip1">
                        <path d="M913.16,72.415C913.16,55.803 899.674,42.317 883.062,42.317L63.949,42.317C47.337,42.317 33.85,55.803 33.85,72.415L33.85,625.477C33.85,642.088 47.337,655.575 63.949,655.575L883.062,655.575C899.674,655.575 913.16,642.088 913.16,625.477L913.16,72.415Z"/>
                    </clipPath>
                    <g clip-path="url(#_clip1)">
                        <g transform="matrix(1,0,0,0.764655,15.2218,32.3063)">
                            <rect x="18.628" y="13.091" width="879.31" height="79.165" style="fill:rgb(200,199,201);"/>
                        </g>
                        <g transform="matrix(1.05013,0,0,1.4669,-21.1647,-2965.5)">
                            <rect x="52.389" y="2091.18" width="837.334" height="382.147" style="fill:rgb(13,42,67);"/>
                        </g>
                    </g>
                </g>
                <g transform="matrix(0.440072,0,0,0.439715,6.61232,-20.1394)">
                    <circle cx="74.148" cy="67.093" r="14.419" style="fill:rgb(254,95,87);"/>
                </g>
                <g transform="matrix(0.440072,0,0,0.439715,25.5791,-20.1394)">
                    <circle cx="74.148" cy="67.093" r="14.419" style="fill:rgb(254,188,46);"/>
                </g>
                <g transform="matrix(0.440072,0,0,0.439715,44.5459,-20.1394)">
                    <circle cx="74.148" cy="67.093" r="14.419" style="fill:rgb(40,200,64);"/>
                </g>
            </g>
            <g transform="matrix(0.905254,0,0,0.9515,-5.68434e-14,-3390.39)">
                <text x="73.934px" y="3907.24px" style="font-family:'MonoLisa-Black', 'MonoLisa';font-weight:900;font-size:200px;fill:rgb(249,249,249);">MOAA</text>
            </g>
            <g transform="matrix(0.905254,0,0,0.9515,-2.84217e-14,-3176.99)">
                <text x="73.934px" y="3803.64px" style="font-family:'MonoLisa-Black', 'MonoLisa';font-weight:900;font-size:60px;fill:rgb(249,249,249);">Museum of Alex</text>
            </g>
            <g transform="matrix(0.905254,0,0,0.9515,0,-3333.15)">
                <path d="M73.934,3906.11L829.255,3906.11" style="fill:none;stroke:rgb(249,249,249);stroke-width:2.5px;"/>
            </g>
            <g transform="matrix(0.905254,0,0,0.9515,0,-3253.52)">
                <path d="M73.934,3906.11L829.255,3906.11" style="fill:none;stroke:rgb(249,249,249);stroke-width:2.5px;"/>
            </g>
        </g>
    </g>
</svg>
