
<svg width="100%" height="100%" viewBox="0 0 1986 1321" version="1.1" xmlns="http://www.w3.org/2000/svg" xmlns:xlink="http://www.w3.org/1999/xlink" xml:space="preserve" xmlns:serif="http://www.serif.com/" style="fill-rule:evenodd;clip-rule:evenodd;stroke-linejoin:round;stroke-miterlimit:2;">
    <g id="Artboard1" transform="matrix(0.95586,0,0,0.962242,592.366,-43.9046)">
        <rect x="-619.721" y="45.627" width="2077.43" height="1371.86" style="fill:none;"/>
        <g id="MOAA" transform="matrix(1.04618,0,0,1.03924,2493.86,-76.1979)">
            <g transform="matrix(12.1186,0,0,11.322,-61710.1,-10321.5)">
                <g>
                    <path d="M5009.9,931.814C5009.9,926.549 5006.01,922.275 5001.21,922.275L4855.88,922.275C4851.08,922.275 4847.19,926.549 4847.19,931.814L4847.19,1028.57C4847.19,1033.83 4851.08,1038.11 4855.88,1038.11L5001.21,1038.11C5006.01,1038.11 5009.9,1033.83 5009.9,1028.57L5009.9,931.814Z" style="fill:rgb(238,236,236);"/>
                    <g>
                        <clipPath id="_clip1">
                            <path d="M5009.9,931.814C5009.9,926.549 5006.01,922.275 5001.21,922.275L4855.88,922.275C4851.08,922.275 4847.19,926.549 4847.19,931.814L4847.19,1028.57C4847.19,1033.83 4851.08,1038.11 4855.88,1038.11L5001.21,1038.11C5006.01,1038.11 5009.9,1033.83 5009.9,1028.57L5009.9,931.814Z"/>
                        </clipPath>
                        <g clip-path="url(#_clip1)">
                            <g transform="matrix(0.846797,0,0,0.725002,723.557,257.977)">
                                <path d="M5009.9,930.509C5009.9,928.851 5008.85,927.505 5007.56,927.505L4932.42,927.505C4931.13,927.505 4930.08,928.851 4930.08,930.509L4930.08,930.575C4930.08,932.233 4931.13,933.579 4932.42,933.579L5007.56,933.579C5008.85,933.579 5009.9,932.233 5009.9,930.575L5009.9,930.509Z" style="fill:rgb(247,247,247);"/>
                                <path d="M5009.76,931.6C5009.43,932.754 5008.57,933.579 5007.56,933.579L4932.42,933.579C4931.13,933.579 4930.08,932.233 4930.08,930.575L4930.08,930.509C4930.08,928.851 4931.13,927.505 4932.42,927.505L5007.56,927.505C5008.85,927.505 5009.9,928.851 5009.9,930.509L5009.9,930.575C5009.9,930.917 5009.85,931.245 5009.77,931.551L5008.96,930.509C5008.96,929.516 5008.33,928.71 5007.56,928.71L4932.42,928.71C4931.65,928.71 4931.02,929.516 4931.02,930.509L4931.02,930.511C4931.02,930.536 4931.02,930.566 4931,930.6L4931.02,930.575C4931.02,931.568 4931.65,932.374 4932.42,932.374L5007.56,932.374C5008.33,932.374 5008.96,931.568 5008.96,930.575L5009.76,931.6ZM5009.77,931.551L5009.76,931.6L5008.96,930.573L5008.96,930.511L5009.77,931.551Z" style="fill:rgb(0,11,21);stroke:rgb(245,245,245);stroke-width:0.11px;"/>
                            </g>
                            <g transform="matrix(0.500532,0,0,0.549854,2418.74,423.23)">
                                <circle cx="4889.13" cy="925.844" r="4.791" style="fill:rgb(245,245,245);stroke:rgb(0,11,21);stroke-width:0.16px;"/>
                                <path d="M4889.13,921.052C4891.77,921.052 4893.92,923.199 4893.92,925.844C4893.92,928.488 4891.77,930.635 4889.13,930.635C4886.48,930.635 4884.34,928.488 4884.34,925.844C4884.34,923.199 4886.48,921.052 4889.13,921.052ZM4889.13,922.112C4891.19,922.112 4892.86,923.784 4892.86,925.844C4892.86,927.904 4891.19,929.576 4889.13,929.576C4887.07,929.576 4885.4,927.904 4885.4,925.844C4885.4,923.784 4887.07,922.112 4889.13,922.112Z" style="fill:rgb(0,11,21);stroke:rgb(245,245,245);stroke-width:0.16px;"/>
                            </g>
                            <g transform="matrix(0.500532,0,0,0.549854,2425.44,423.109)">
                                <circle cx="4889.13" cy="925.844" r="4.791" style="fill:rgb(245,245,245);stroke:rgb(0,11,21);stroke-width:0.16px;"/>
                                <path d="M4889.13,921.052C4891.77,921.052 4893.92,923.199 4893.92,925.844C4893.92,928.488 4891.77,930.635 4889.13,930.635C4886.48,930.635 4884.34,928.488 4884.34,925.844C4884.34,923.199 4886.48,921.052 4889.13,921.052ZM4889.13,922.112C4891.19,922.112 4892.86,923.784 4892.86,925.844C4892.86,927.904 4891.19,929.576 4889.13,929.576C4887.07,929.576 4885.4,927.904 4885.4,925.844C4885.4,923.784 4887.07,922.112 4889.13,922.112Z" style="fill:rgb(0,11,21);stroke:rgb(245,245,245);stroke-width:0.16px;"/>
                            </g>
                            <g transform="matrix(0.500532,0,0,0.549854,2412.04,423.109)">
                                <circle cx="4889.13" cy="925.844" r="4.791" style="fill:rgb(245,245,245);stroke:rgb(0,11,21);stroke-width:0.16px;"/>
                                <path d="M4889.13,921.052C4891.77,921.052 4893.92,923.199 4893.92,925.844C4893.92,928.488 4891.77,930.635 4889.13,930.635C4886.48,930.635 4884.34,928.488 4884.34,925.844C4884.34,923.199 4886.48,921.052 4889.13,921.052ZM4889.13,922.112C4891.19,922.112 4892.86,923.784 4892.86,925.844C4892.86,927.904 4891.19,929.576 4889.13,929.576C4887.07,929.576 4885.4,927.904 4885.4,925.844C4885.4,923.784 4887.07,922.112 4889.13,922.112Z" style="fill:rgb(0,11,21);stroke:rgb(245,245,245);stroke-width:0.16px;"/>
                            </g>
                            <g transform="matrix(0.876229,0,0,0.962573,578.449,47.8865)">
                                <rect x="4873.71" y="926.817" width="181.621" height="100.029" style="fill:rgb(13,41,67);stroke:rgb(65,64,77);stroke-width:0.91px;stroke-linecap:round;stroke-miterlimit:1.5;"/>
                            </g>
                        </g>
                    </g>
                    <path d="M5009.9,931.814C5009.9,926.549 5006.01,922.275 5001.21,922.275L4855.88,922.275C4851.08,922.275 4847.19,926.549 4847.19,931.814L4847.19,1028.57C4847.19,1033.83 4851.08,1038.11 4855.88,1038.11L5001.21,1038.11C5006.01,1038.11 5009.9,1033.83 5009.9,1028.57L5009.9,931.814ZM5008.04,931.814L5008.04,1028.57C5008.04,1032.71 5004.98,1036.07 5001.21,1036.07L4855.88,1036.07C4852.11,1036.07 4849.05,1032.71 4849.05,1028.57L4849.05,931.814C4849.05,927.674 4852.11,924.314 4855.88,924.314L5001.21,924.314C5004.98,924.314 5008.04,927.674 5008.04,931.814Z" style="fill:rgb(65,64,77);"/>
                </g>
            </g>
            <g transform="matrix(1.27461,0,0,1.36733,-6406.53,-2367.07)">
                <rect x="2813" y="2030" width="1200" height="600" style="fill:rgb(13,41,67);"/>
            </g>
            <g transform="matrix(1.98188,0,0,2.12606,-8432.33,-4010.82)">
                <text x="2870.71px" y="2271.64px" style="font-family:'BebasNeue-Regular', 'Bebas Neue', sans-serif;font-size:203.877px;fill:white;">MO<tspan x="3061.54px 3144.31px " y="2271.64px 2271.64px ">AA</tspan></text>
            </g>
            <g transform="matrix(0.750452,0,0,0.805045,-4186.22,-673.425)">
                <text x="2870.71px" y="2271.64px" style="font-family:'BebasNeue-Regular', 'Bebas Neue', sans-serif;font-size:203.877px;fill:white;">A Thing A D<tspan x="3580.2px 3652.58px " y="2271.64px 2271.64px ">ay</tspan></text>
            </g>
            <g transform="matrix(0.609463,0,0,0.6538,-3733.99,-795.338)">
                <text x="2870.71px" y="2271.64px" style="font-family:'BebasNeue-Regular', 'Bebas Neue', sans-serif;font-size:203.877px;fill:white;">the Museum of</text>
                <text x="2870.71px" y="2475.52px" style="font-family:'BebasNeue-Regular', 'Bebas Neue', sans-serif;font-size:203.877px;fill:white;">Ale<tspan x="3097.01px " y="2475.52px ">x</tspan> Ar<tspan x="3375.92px " y="2475.52px ">t</tspan></text>
            </g>
            <g transform="matrix(1.24395,0,0,0.939369,-6301.23,-1376.63)">
                <rect x="2873.81" y="2375.12" width="1077.3" height="22.585" style="fill:white;"/>
            </g>
        </g>
    </g>
</svg>
