
<svg width="100%" height="100%" viewBox="0 0 1196 907" version="1.1" xmlns="http://www.w3.org/2000/svg" xmlns:xlink="http://www.w3.org/1999/xlink" xml:space="preserve" xmlns:serif="http://www.serif.com/" style="fill-rule:evenodd;clip-rule:evenodd;stroke-linecap:round;stroke-linejoin:round;stroke-miterlimit:1.5;">
    <g transform="matrix(1,0,0,1,-1534.75,-959.138)">
        <g id="Artboard1" transform="matrix(1.27814,0,0,1.33919,1534.75,990.612)">
            <rect x="0" y="-23.502" width="935.394" height="676.703" style="fill:none;"/>
            <g transform="matrix(1.29668,0,0,1.40846,-0.914844,9.59981)">
                <g transform="matrix(0.603368,0,0,0.530167,-8.47873,-29.1189)">
                    <path d="M913.16,72.415C913.16,55.803 899.674,42.317 883.062,42.317L63.949,42.317C47.337,42.317 33.85,55.803 33.85,72.415L33.85,625.477C33.85,642.088 47.337,655.575 63.949,655.575L883.062,655.575C899.674,655.575 913.16,642.088 913.16,625.477L913.16,72.415Z" style="fill:rgb(44,46,154);"/>
                    <clipPath id="_clip1">
                        <path d="M913.16,72.415C913.16,55.803 899.674,42.317 883.062,42.317L63.949,42.317C47.337,42.317 33.85,55.803 33.85,72.415L33.85,625.477C33.85,642.088 47.337,655.575 63.949,655.575L883.062,655.575C899.674,655.575 913.16,642.088 913.16,625.477L913.16,72.415Z"/>
                    </clipPath>
                    <g clip-path="url(#_clip1)">
                        <g transform="matrix(1,0,0,0.764655,15.2218,32.3063)">
                            <rect x="18.628" y="13.091" width="879.31" height="79.165" style="fill:rgb(200,199,201);"/>
                        </g>
                    </g>
                </g>
                <g transform="matrix(0.440072,0,0,0.439715,6.61232,-20.1394)">
                    <circle cx="74.148" cy="67.093" r="14.419" style="fill:rgb(254,95,87);"/>
                </g>
                <g transform="matrix(0.440072,0,0,0.439715,25.5791,-20.1394)">
                    <circle cx="74.148" cy="67.093" r="14.419" style="fill:rgb(254,188,46);"/>
                </g>
                <g transform="matrix(0.440072,0,0,0.439715,44.5459,-20.1394)">
                    <circle cx="74.148" cy="67.093" r="14.419" style="fill:rgb(40,200,64);"/>
                </g>
                <g transform="matrix(0.472811,0,0,3.12378,77.7075,-303.061)">
                    <path d="M831.082,127.478C831.082,126.414 824.584,125.55 816.58,125.55L104.943,125.55C96.939,125.55 90.441,126.414 90.441,127.478L90.441,193.1C90.441,194.164 96.939,195.029 104.943,195.029L816.58,195.029C824.584,195.029 831.082,194.164 831.082,193.1L831.082,127.478Z" style="fill:none;"/>
                </g>
            </g>
            <g transform="matrix(1.33251,0,0,1.53823,-57.1736,-36.9461)">
                <g transform="matrix(0.255514,0,0,0.522308,486.734,87.24)">
                    <path d="M913.16,59.771C913.16,50.138 893.823,42.317 870.005,42.317L77.006,42.317C53.188,42.317 33.85,50.138 33.85,59.771L33.85,638.12C33.85,647.754 53.188,655.575 77.006,655.575L870.005,655.575C893.823,655.575 913.16,647.754 913.16,638.12L913.16,59.771Z" style="fill:rgb(249,249,249);"/>
                    <clipPath id="_clip2">
                        <path d="M913.16,59.771C913.16,50.138 893.823,42.317 870.005,42.317L77.006,42.317C53.188,42.317 33.85,50.138 33.85,59.771L33.85,638.12C33.85,647.754 53.188,655.575 77.006,655.575L870.005,655.575C893.823,655.575 913.16,647.754 913.16,638.12L913.16,59.771Z"/>
                    </clipPath>
                    <g clip-path="url(#_clip2)">
                        <g>
                            <g transform="matrix(1,0,0,0.764655,15.2218,32.3063)">
                                <rect x="18.628" y="13.091" width="879.31" height="79.165" style="fill:rgb(200,199,201);"/>
                            </g>
                            <g transform="matrix(1.55635,0,0,3.82974,326.904,-1357.54)">
                                <rect x="123.806" y="512.727" width="223.212" height="21.927" style="fill:rgb(232,232,232);"/>
                            </g>
                            <g transform="matrix(2.94794,0,0,1.19232,-1961.8,-264.816)">
                                <rect x="703.99" y="379.23" width="252.721" height="213.588" style="fill:rgb(159,199,95);"/>
                            </g>
                            <g transform="matrix(1.47397,0,0,0.547324,-924.137,365.585)">
                                <rect x="703.99" y="379.23" width="252.721" height="213.588" style="fill:rgb(159,199,95);"/>
                            </g>
                        </g>
                    </g>
                    <path d="M913.16,59.771C913.16,50.138 893.823,42.317 870.005,42.317L77.006,42.317C53.188,42.317 33.85,50.138 33.85,59.771L33.85,638.12C33.85,647.754 53.188,655.575 77.006,655.575L870.005,655.575C893.823,655.575 913.16,647.754 913.16,638.12L913.16,59.771Z" style="fill:none;stroke:rgb(96,96,96);stroke-width:0.61px;"/>
                </g>
                <g transform="matrix(0.258446,0,0,0.618905,492.426,247.868)">
                    <path d="M831.082,127.478C831.082,126.414 828.579,125.55 825.496,125.55L96.027,125.55C92.944,125.55 90.441,126.414 90.441,127.478L90.441,193.1C90.441,194.164 92.944,195.029 96.027,195.029L825.496,195.029C828.579,195.029 831.082,194.164 831.082,193.1L831.082,127.478Z" style="fill:none;stroke:rgb(206,206,206);stroke-width:3.15px;"/>
                </g>
                <g transform="matrix(0.465396,0,0,0.419237,465.534,115.736)">
                    <rect x="123.806" y="512.727" width="223.212" height="21.927" style="fill:rgb(232,232,232);"/>
                </g>
                <g transform="matrix(0.761966,0,0,0.939618,413.212,-335.429)">
                    <rect x="123.806" y="512.727" width="223.212" height="21.927" style="fill:rgb(39,125,161);stroke:rgb(232,232,232);stroke-width:2.43px;"/>
                </g>
                <g transform="matrix(0.39767,0,0,0.590618,570.263,83.773)">
                    <rect x="123.806" y="512.727" width="223.212" height="21.927" style="fill:rgb(232,232,232);"/>
                </g>
                <g transform="matrix(0.649813,0,0,0.229837,442.703,225.798)">
                    <rect x="123.806" y="512.727" width="223.212" height="21.927" style="fill:rgb(232,232,232);"/>
                </g>
                <g transform="matrix(0.799229,0,0,0.229696,424.204,232.93)">
                    <rect x="123.806" y="512.727" width="223.212" height="21.927" style="fill:rgb(232,232,232);"/>
                </g>
                <g transform="matrix(0.727807,0,0,0.229696,433.046,240.293)">
                    <rect x="123.806" y="512.727" width="223.212" height="21.927" style="fill:rgb(232,232,232);"/>
                </g>
                <g transform="matrix(0.280581,0,0,2.90539,481.64,-189.208)">
                    <path d="M831.082,127.191C831.082,126.285 821.87,125.55 810.523,125.55L111,125.55C99.653,125.55 90.441,126.285 90.441,127.191L90.441,193.387C90.441,194.293 99.653,195.029 111,195.029L810.523,195.029C821.87,195.029 831.082,194.293 831.082,193.387L831.082,127.191Z" style="fill:none;stroke:rgb(232,232,232);stroke-width:0.94px;"/>
                </g>
                <g transform="matrix(0.641249,0,0,0.42563,73.2428,2.39491)">
                    <path d="M957.939,274.628C957.939,272.98 956.865,271.642 955.541,271.642L721.428,271.642C720.105,271.642 719.03,272.98 719.03,274.628L719.03,302.192C719.03,303.841 720.105,305.179 721.428,305.179L955.541,305.179C956.865,305.179 957.939,303.841 957.939,302.192L957.939,274.628Z" style="fill:rgb(249,249,249);"/>
                </g>
            </g>
        </g>
    </g>
</svg>
