
<svg width="100%" height="100%" viewBox="0 0 307 199" version="1.1" xmlns="http://www.w3.org/2000/svg" xmlns:xlink="http://www.w3.org/1999/xlink" xml:space="preserve" xmlns:serif="http://www.serif.com/" style="fill-rule:evenodd;clip-rule:evenodd;stroke-linecap:round;stroke-linejoin:round;stroke-miterlimit:1.5;">
    <g transform="matrix(1,0,0,1,-5758.25,-1696.11)">
        <g transform="matrix(0.505316,0,0,3.65507,3678.56,-5575.31)">
            <g transform="matrix(3.73223,0,0,0.469699,-13975.2,1556.21)">
                <path d="M5009.9,931.814C5009.9,926.549 5006.01,922.275 5001.21,922.275L4855.88,922.275C4851.08,922.275 4847.19,926.549 4847.19,931.814L4847.19,1028.57C4847.19,1033.83 4851.08,1038.11 4855.88,1038.11L5001.21,1038.11C5006.01,1038.11 5009.9,1033.83 5009.9,1028.57L5009.9,931.814Z" style="fill:rgb(238,236,236);"/>
                <clipPath id="_clip1">
                    <path d="M5009.9,931.814C5009.9,926.549 5006.01,922.275 5001.21,922.275L4855.88,922.275C4851.08,922.275 4847.19,926.549 4847.19,931.814L4847.19,1028.57C4847.19,1033.83 4851.08,1038.11 4855.88,1038.11L5001.21,1038.11C5006.01,1038.11 5009.9,1033.83 5009.9,1028.57L5009.9,931.814Z"/>
                </clipPath>
                <g clip-path="url(#_clip1)">
                    <g transform="matrix(0.846797,0,0,0.725002,723.557,257.977)">
                        <path d="M5009.9,930.509C5009.9,928.851 5008.85,927.505 5007.56,927.505L4932.42,927.505C4931.13,927.505 4930.08,928.851 4930.08,930.509L4930.08,930.575C4930.08,932.233 4931.13,933.579 4932.42,933.579L5007.56,933.579C5008.85,933.579 5009.9,932.233 5009.9,930.575L5009.9,930.509Z" style="fill:white;"/>
                        <path d="M5009.76,931.6C5009.43,932.754 5008.57,933.579 5007.56,933.579L4932.42,933.579C4931.13,933.579 4930.08,932.233 4930.08,930.575L4930.08,930.509C4930.08,928.851 4931.13,927.505 4932.42,927.505L5007.56,927.505C5008.85,927.505 5009.9,928.851 5009.9,930.509L5009.9,930.575C5009.9,930.917 5009.85,931.245 5009.77,931.551L5008.96,930.509C5008.96,929.516 5008.33,928.71 5007.56,928.71L4932.42,928.71C4931.65,928.71 4931.02,929.516 4931.02,930.509L4931.02,930.511C4931.02,930.536 4931.02,930.566 4931,930.6L4931.02,930.575C4931.02,931.568 4931.65,932.374 4932.42,932.374L5007.56,932.374C5008.33,932.374 5008.96,931.568 5008.96,930.575L5009.76,931.6ZM5009.77,931.551L5009.76,931.6L5008.96,930.573C5008.96,930.573 5008.96,930.511 5008.96,930.511L5009.77,931.551Z" style="fill:rgb(65,64,77);"/>
                    </g>
                    <g transform="matrix(0.500532,0,0,0.549854,2418.74,423.23)">
                        <circle cx="4889.13" cy="925.844" r="4.791" style="fill:white;"/>
                        <path d="M4889.13,921.052C4891.77,921.052 4893.92,923.199 4893.92,925.844C4893.92,928.488 4891.77,930.635 4889.13,930.635C4886.48,930.635 4884.34,928.488 4884.34,925.844C4884.34,923.199 4886.48,921.052 4889.13,921.052ZM4889.13,922.112C4891.19,922.112 4892.86,923.784 4892.86,925.844C4892.86,927.904 4891.19,929.576 4889.13,929.576C4887.07,929.576 4885.4,927.904 4885.4,925.844C4885.4,923.784 4887.07,922.112 4889.13,922.112Z" style="fill:rgb(65,64,77);"/>
                    </g>
                    <g transform="matrix(0.500532,0,0,0.549854,2425.44,423.109)">
                        <circle cx="4889.13" cy="925.844" r="4.791" style="fill:white;"/>
                        <path d="M4889.13,921.052C4891.77,921.052 4893.92,923.199 4893.92,925.844C4893.92,928.488 4891.77,930.635 4889.13,930.635C4886.48,930.635 4884.34,928.488 4884.34,925.844C4884.34,923.199 4886.48,921.052 4889.13,921.052ZM4889.13,922.112C4891.19,922.112 4892.86,923.784 4892.86,925.844C4892.86,927.904 4891.19,929.576 4889.13,929.576C4887.07,929.576 4885.4,927.904 4885.4,925.844C4885.4,923.784 4887.07,922.112 4889.13,922.112Z" style="fill:rgb(65,64,77);"/>
                    </g>
                    <g transform="matrix(0.500532,0,0,0.549854,2412.04,423.109)">
                        <circle cx="4889.13" cy="925.844" r="4.791" style="fill:white;"/>
                        <path d="M4889.13,921.052C4891.77,921.052 4893.92,923.199 4893.92,925.844C4893.92,928.488 4891.77,930.635 4889.13,930.635C4886.48,930.635 4884.34,928.488 4884.34,925.844C4884.34,923.199 4886.48,921.052 4889.13,921.052ZM4889.13,922.112C4891.19,922.112 4892.86,923.784 4892.86,925.844C4892.86,927.904 4891.19,929.576 4889.13,929.576C4887.07,929.576 4885.4,927.904 4885.4,925.844C4885.4,923.784 4887.07,922.112 4889.13,922.112Z" style="fill:rgb(65,64,77);"/>
                    </g>
                    <g transform="matrix(0.876229,0,0,0.962573,578.449,47.8865)">
                        <rect x="4873.71" y="926.817" width="181.621" height="100.029" style="fill:rgb(112,64,244);stroke:rgb(65,64,77);stroke-width:0.91px;"/>
                    </g>
                </g>
                <path d="M5009.9,931.814C5009.9,926.549 5006.01,922.275 5001.21,922.275L4855.88,922.275C4851.08,922.275 4847.19,926.549 4847.19,931.814L4847.19,1028.57C4847.19,1033.83 4851.08,1038.11 4855.88,1038.11L5001.21,1038.11C5006.01,1038.11 5009.9,1033.83 5009.9,1028.57L5009.9,931.814ZM5008.04,931.814L5008.04,1028.57C5008.04,1032.71 5004.98,1036.07 5001.21,1036.07L4855.88,1036.07C4852.11,1036.07 4849.05,1032.71 4849.05,1028.57C4849.05,1028.57 4849.05,931.814 4849.05,931.814C4849.05,927.674 4852.11,924.314 4855.88,924.314C4855.88,924.314 5001.21,924.314 5001.21,924.314C5004.98,924.314 5008.04,927.674 5008.04,931.814Z" style="fill:rgb(65,64,77);"/>
            </g>
            <g id="pokedex" transform="matrix(0.421175,0,0,0.0584817,4172.07,2002.15)">
                <g id="poke-dex">
                    <path id="arms" d="M206,175L419,175C419,175 426,174 434,165L460,132C460,132 471,116 492,119L593,118L711,118C711,118 726,119 733,129L768,171C768,171 770,172 804,172L989,172L989,605L224,605L206,175Z" style="fill:rgb(232,72,72);stroke:black;stroke-width:14.07px;"/>
                    <g id="base" transform="matrix(1.02089,0,0,1.02504,-19.5326,-11.0519)">
                        <path d="M600,60.399C600,50.244 591.686,42 581.446,42L235.554,42C225.314,42 217,50.244 217,60.399L217,582.601C217,592.756 225.314,601 235.554,601L581.446,601C591.686,601 600,592.756 600,582.601L600,60.399Z" style="fill:rgb(232,72,72);stroke:black;stroke-width:13.75px;"/>
                    </g>
                </g>
                <g id="panel">
                    <g>
                        <rect x="688" y="447" width="97" height="39" style="fill:rgb(230,230,230);stroke:black;stroke-width:9.38px;stroke-linejoin:miter;stroke-miterlimit:2.5;"/>
                    </g>
                    <path d="M736.5,447L736.5,486" style="fill:none;stroke:black;stroke-width:9.38px;stroke-linejoin:miter;stroke-miterlimit:2.5;"/>
                </g>
                <g id="yellow-arm-btn" transform="matrix(1.125,0,0,1.125,-121.5,-63.375)">
                    <ellipse cx="916" cy="471" rx="16" ry="15" style="fill:rgb(249,238,105);stroke:black;stroke-width:8.33px;stroke-linejoin:miter;stroke-miterlimit:2.5;"/>
                </g>
                <g id="arm-bottom-btns">
                    <g transform="matrix(0.959677,0,0,1,27.7419,-2)">
                        <path d="M812,524.5C812,518.153 806.607,513 799.965,513L700.035,513C693.393,513 688,518.153 688,524.5L688,547.5C688,553.847 693.393,559 700.035,559L799.965,559C806.607,559 812,553.847 812,547.5L812,524.5Z" style="fill:rgb(102,102,102);stroke:black;stroke-width:9.57px;stroke-linejoin:miter;stroke-miterlimit:2.5;"/>
                    </g>
                    <g transform="matrix(0.637097,0,0,1,409.677,-2)">
                        <path d="M812,524.5C812,518.153 803.877,513 793.871,513L706.129,513C696.123,513 688,518.153 688,524.5L688,547.5C688,553.847 696.123,559 706.129,559L793.871,559C803.877,559 812,553.847 812,547.5L812,524.5Z" style="fill:rgb(102,102,102);stroke:black;stroke-width:11.17px;stroke-linejoin:miter;stroke-miterlimit:2.5;"/>
                    </g>
                </g>
                <g id="controller">
                    <path id="joy-stick" d="M468.926,504.5L451.5,504.5C447.637,504.5 444.5,507.637 444.5,511.5L444.5,525.5C444.5,529.363 447.637,532.5 451.5,532.5L469.074,532.5L469.166,550.073C469.187,553.937 472.34,557.057 476.203,557.036L490.203,556.963C494.066,556.942 497.186,553.789 497.166,549.926L497.074,532.5L514.5,532.5C518.363,532.5 521.5,529.363 521.5,525.5L521.5,511.5C521.5,507.637 518.363,504.5 514.5,504.5L496.926,504.5L496.834,486.927C496.813,483.063 493.66,479.943 489.797,479.964L475.797,480.037C471.934,480.058 468.814,483.211 468.834,487.074L468.926,504.5Z" style="fill:rgb(77,77,77);stroke:black;stroke-width:7.03px;stroke-linejoin:miter;stroke-miterlimit:2.5;"/>
                    <g id="hole-cross" transform="matrix(1.46154,0,0,1.46154,-223.154,-239.105)">
                        <ellipse cx="483.5" cy="518.06" rx="6.5" ry="6.06" style="fill:rgb(77,77,77);stroke:black;stroke-width:4.81px;stroke-linejoin:miter;stroke-miterlimit:2.5;"/>
                    </g>
                </g>
                <g id="gray-btns">
                    <g id="left-grey-button" transform="matrix(1,0,0,1,-3,-1)">
                        <path d="M873,412.5C873,411.12 871.875,410 870.489,410L832.511,410C831.125,410 830,411.12 830,412.5L830,417.5C830,418.88 831.125,420 832.511,420L870.489,420C871.875,420 873,418.88 873,417.5L873,412.5Z" style="fill:rgb(77,77,77);stroke:black;stroke-width:7.03px;stroke-linejoin:miter;stroke-miterlimit:2.5;"/>
                    </g>
                    <g id="right-gray-btn" transform="matrix(1,0,0,1,54,-1)">
                        <path d="M873,412.5C873,411.12 871.875,410 870.489,410L832.511,410C831.125,410 830,411.12 830,412.5L830,417.5C830,418.88 831.125,420 832.511,420L870.489,420C871.875,420 873,418.88 873,417.5L873,412.5Z" style="fill:rgb(77,77,77);stroke:black;stroke-width:7.03px;stroke-linejoin:miter;stroke-miterlimit:2.5;"/>
                    </g>
                </g>
                <g id="line-details">
                    <path d="M689,582L649,582C649,582 639.659,584 639.659,565L639.659,287" style="fill:none;stroke:black;stroke-width:9.38px;stroke-linejoin:miter;stroke-miterlimit:2.5;"/>
                    <path d="M737,327.233L736,385" style="fill:none;stroke:black;stroke-width:9.38px;stroke-linejoin:miter;stroke-miterlimit:2.5;"/>
                    <g transform="matrix(1,0,0,1,141,0)">
                        <path d="M737,327.233L736,385" style="fill:none;stroke:black;stroke-width:9.38px;stroke-linejoin:miter;stroke-miterlimit:2.5;"/>
                    </g>
                    <g transform="matrix(1,0,0,1,94,0)">
                        <path d="M737,327.233L736,385" style="fill:none;stroke:black;stroke-width:9.38px;stroke-linejoin:miter;stroke-miterlimit:2.5;"/>
                    </g>
                    <g transform="matrix(1,0,0,1,47,0.883652)">
                        <path d="M737,327.233L736,385" style="fill:none;stroke:black;stroke-width:9.38px;stroke-linejoin:miter;stroke-miterlimit:2.5;"/>
                    </g>
                    <path d="M898,190L970,190L970,573C970,573 971.499,586.75 956.25,586.75L719,586.75" style="fill:none;stroke:black;stroke-width:9.38px;stroke-linejoin:miter;stroke-miterlimit:2.5;"/>
                    <path d="M639.659,225L639.659,136L712,136C712,136 746,189 769,188" style="fill:none;stroke:black;stroke-width:9.38px;stroke-linejoin:miter;stroke-miterlimit:2.5;"/>
                    <path d="M556,322L556,474" style="fill:none;stroke:black;stroke-width:9.38px;stroke-linejoin:miter;stroke-miterlimit:2.5;"/>
                    <path d="M221,190L416,190C416,190 431,191 442,178L473,144C473,144 480,136 486,136L556,136L556,279" style="fill:none;stroke:black;stroke-width:9.38px;stroke-linejoin:miter;stroke-miterlimit:2.5;"/>
                    <path d="M232,585L539,585C539,585 555,587 558,569L558,504.81" style="fill:none;stroke:black;stroke-width:9.38px;stroke-linejoin:miter;stroke-miterlimit:2.5;"/>
                    <g transform="matrix(1,0,0,0.991803,0,4.95902)">
                        <path d="M573,117L573,605" style="fill:none;stroke:black;stroke-width:9.42px;stroke-linejoin:miter;stroke-miterlimit:2.5;"/>
                    </g>
                    <path d="M620,119L620,603" style="fill:none;stroke:black;stroke-width:9.38px;stroke-linejoin:miter;stroke-miterlimit:2.5;"/>
                </g>
                <g id="arm-screen" transform="matrix(1.01271,0,0,1,-11.7585,0)">
                    <rect x="689" y="225" width="236" height="71" style="fill:rgb(102,102,102);stroke:black;stroke-width:9.32px;stroke-linejoin:miter;stroke-miterlimit:2.5;"/>
                </g>
                <rect x="689" y="322" width="236" height="70" style="fill:rgb(81,174,199);stroke:black;stroke-width:9.38px;stroke-linejoin:miter;stroke-miterlimit:2.5;"/>
                <path d="M697,357L917,357" style="fill:none;stroke:black;stroke-width:9.38px;stroke-linejoin:miter;stroke-miterlimit:2.5;"/>
                <g id="screen">
                    <path id="screen-panel" d="M254,225L522,225L522,436L276,436L254,398L254,225Z" style="fill:rgb(230,230,230);stroke:black;stroke-width:7.03px;"/>
                    <rect id="screen1" serif:id="screen" x="290" y="264" width="198" height="126" style="fill:rgb(102,102,102);stroke:black;stroke-width:7.03px;"/>
                    <g transform="matrix(1,0,0,1,3.91098,21.6259)">
                        <path d="M484,400.5C484,400.224 483.775,400 483.498,400L464.502,400C464.225,400 464,400.224 464,400.5L464,401.5C464,401.776 464.225,402 464.502,402L483.498,402C483.775,402 484,401.776 484,401.5L484,400.5Z" style="fill:none;stroke:black;stroke-width:4.69px;"/>
                    </g>
                    <g transform="matrix(1,0,0,1,3.91098,12.813)">
                        <path d="M484,400.5C484,400.224 483.775,400 483.498,400L464.502,400C464.225,400 464,400.224 464,400.5L464,401.5C464,401.776 464.225,402 464.502,402L483.498,402C483.775,402 484,401.776 484,401.5L484,400.5Z" style="fill:none;stroke:black;stroke-width:4.69px;stroke-linejoin:miter;"/>
                    </g>
                    <g transform="matrix(1,0,0,1,4,4)">
                        <path d="M484,400.5C484,400.224 483.775,400 483.498,400L464.502,400C464.225,400 464,400.224 464,400.5L464,401.5C464,401.776 464.225,402 464.502,402L483.498,402C483.775,402 484,401.776 484,401.5L484,400.5Z" style="fill:none;stroke:black;stroke-width:4.69px;stroke-linejoin:miter;stroke-miterlimit:2.5;"/>
                    </g>
                    <g transform="matrix(1,0,0,1,45,0)">
                        <ellipse cx="366" cy="247.5" rx="5" ry="4.5" style="fill:none;stroke:black;stroke-width:7.03px;stroke-linejoin:miter;stroke-miterlimit:2.5;"/>
                    </g>
                    <g transform="matrix(1,0,0,1,0,-5)">
                        <ellipse cx="302" cy="417" rx="9" ry="8" style="fill:rgb(232,72,72);stroke:black;stroke-width:7.03px;stroke-linejoin:miter;stroke-miterlimit:2.5;"/>
                    </g>
                    <g transform="matrix(1,0,0,1,-2,0)">
                        <ellipse cx="366" cy="247.5" rx="5" ry="4.5" style="fill:none;stroke:black;stroke-width:7.03px;stroke-linejoin:miter;stroke-miterlimit:2.5;"/>
                    </g>
                </g>
                <g>
                    <path id="red-btn" d="M364,482.75C364,481.232 362.762,480 361.238,480L326.762,480C325.238,480 324,481.232 324,482.75L324,488.25C324,489.768 325.238,491 326.762,491L361.238,491C362.762,491 364,489.768 364,488.25L364,482.75Z" style="fill:rgb(232,72,72);stroke:black;stroke-width:9.38px;stroke-linejoin:miter;stroke-miterlimit:2.5;"/>
                    <g id="blue-btn" transform="matrix(1,0,0,1,56.0693,0.380371)">
                        <path d="M364,482.75C364,481.232 362.762,480 361.238,480L326.762,480C325.238,480 324,481.232 324,482.75L324,488.25C324,489.768 325.238,491 326.762,491L361.238,491C362.762,491 364,489.768 364,488.25L364,482.75Z" style="fill:rgb(81,174,199);stroke:black;stroke-width:14.07px;stroke-linejoin:miter;stroke-miterlimit:2.5;"/>
                    </g>
                    <path id="gren-btn" d="M400.069,524.58C400.069,521.5 397.558,519 394.465,519L329.604,519C326.511,519 324,521.5 324,524.58L324,553.42C324,556.5 326.511,559 329.604,559L394.465,559C397.558,559 400.069,556.5 400.069,553.42L400.069,524.58Z" style="fill:rgb(81,178,150);stroke:black;stroke-width:9.38px;stroke-linejoin:miter;stroke-miterlimit:2.5;"/>
                    <g id="joy" transform="matrix(1,0,0,1,-4,-5.88037)">
                        <ellipse cx="280.5" cy="510.69" rx="20.5" ry="19.31" style="fill:rgb(77,77,77);stroke:black;stroke-width:9.38px;stroke-linejoin:miter;stroke-miterlimit:2.5;"/>
                    </g>
                    <g id="joy-bg" transform="matrix(1.07143,0,0,1.02122,-26.7143,-11.1232)">
                        <ellipse cx="283" cy="500.56" rx="21" ry="23.56" style="fill:none;stroke:black;stroke-width:8.96px;stroke-linejoin:miter;stroke-miterlimit:2.5;"/>
                    </g>
                </g>
                <g id="top-pokedex">
                    <g id="red" transform="matrix(1,0,0,1,7,7)">
                        <circle cx="328" cy="61" r="8" style="fill:rgb(232,72,72);stroke:black;stroke-width:9.38px;stroke-linejoin:miter;stroke-miterlimit:2.5;"/>
                    </g>
                    <g id="yellow" transform="matrix(1,0,0,1,41,7)">
                        <circle cx="328" cy="61" r="8" style="fill:rgb(249,238,105);stroke:black;stroke-width:9.38px;stroke-linejoin:miter;stroke-miterlimit:2.5;"/>
                    </g>
                    <g id="green" transform="matrix(1,0,0,1,73,7)">
                        <circle cx="328" cy="61" r="8" style="fill:rgb(79,174,147);stroke:black;stroke-width:9.38px;stroke-linejoin:miter;stroke-miterlimit:2.5;"/>
                    </g>
                    <g id="bulb-bg" transform="matrix(1.05797,0,0,1.10448,-26.1449,-15.1045)">
                        <ellipse cx="278.5" cy="101.5" rx="34.5" ry="33.5" style="fill:none;stroke:black;stroke-width:8.67px;stroke-linejoin:miter;stroke-miterlimit:2.5;"/>
                    </g>
                    <g id="blue-bulb" transform="matrix(1.11765,0,0,1.09615,-39.4118,-15.3077)">
                        <ellipse cx="275.5" cy="102" rx="25.5" ry="26" style="fill:rgb(81,174,199);stroke:black;stroke-width:8.47px;stroke-linejoin:miter;stroke-miterlimit:2.5;"/>
                    </g>
                </g>
            </g>
        </g>
    </g>
</svg>
