
<svg width="100%" height="100%" viewBox="0 0 307 199" version="1.1" xmlns="http://www.w3.org/2000/svg" xmlns:xlink="http://www.w3.org/1999/xlink" xml:space="preserve" xmlns:serif="http://www.serif.com/" style="fill-rule:evenodd;clip-rule:evenodd;stroke-linecap:round;stroke-linejoin:round;stroke-miterlimit:1.5;">
    <g transform="matrix(1,0,0,1,-5758.25,-1696.11)">
        <g transform="matrix(0.505316,0,0,3.65507,3678.56,-5575.31)">
            <g transform="matrix(3.73223,0,0,0.469699,-13975.2,1556.21)">
                <path d="M5009.9,931.814C5009.9,926.549 5006.01,922.275 5001.21,922.275L4855.88,922.275C4851.08,922.275 4847.19,926.549 4847.19,931.814L4847.19,1028.57C4847.19,1033.83 4851.08,1038.11 4855.88,1038.11L5001.21,1038.11C5006.01,1038.11 5009.9,1033.83 5009.9,1028.57L5009.9,931.814Z" style="fill:rgb(238,236,236);"/>
                <clipPath id="_clip1">
                    <path d="M5009.9,931.814C5009.9,926.549 5006.01,922.275 5001.21,922.275L4855.88,922.275C4851.08,922.275 4847.19,926.549 4847.19,931.814L4847.19,1028.57C4847.19,1033.83 4851.08,1038.11 4855.88,1038.11L5001.21,1038.11C5006.01,1038.11 5009.9,1033.83 5009.9,1028.57L5009.9,931.814Z"/>
                </clipPath>
                <g clip-path="url(#_clip1)">
                    <g transform="matrix(0.876229,0,0,0.962573,578.449,47.8865)">
                        <rect x="4873.71" y="926.817" width="181.621" height="100.029" style="fill:rgb(112,64,244);stroke:rgb(65,64,77);stroke-width:0.91px;"/>
                    </g>
                </g>
                <path d="M5009.9,931.814C5009.9,926.549 5006.01,922.275 5001.21,922.275L4855.88,922.275C4851.08,922.275 4847.19,926.549 4847.19,931.814L4847.19,1028.57C4847.19,1033.83 4851.08,1038.11 4855.88,1038.11L5001.21,1038.11C5006.01,1038.11 5009.9,1033.83 5009.9,1028.57L5009.9,931.814ZM5008.04,931.814L5008.04,1028.57C5008.04,1032.71 5004.98,1036.07 5001.21,1036.07L4855.88,1036.07C4852.11,1036.07 4849.05,1032.71 4849.05,1028.57C4849.05,1028.57 4849.05,931.814 4849.05,931.814C4849.05,927.674 4852.11,924.314 4855.88,924.314C4855.88,924.314 5001.21,924.314 5001.21,924.314C5004.98,924.314 5008.04,927.674 5008.04,931.814Z" style="fill:rgb(65,64,77);"/>
            </g>
        </g>
    </g>
</svg>
