
<svg width="100%" height="100%" viewBox="0 0 482 431" version="1.1" xmlns="http://www.w3.org/2000/svg" xmlns:xlink="http://www.w3.org/1999/xlink" xml:space="preserve" xmlns:serif="http://www.serif.com/" style="fill-rule:evenodd;clip-rule:evenodd;stroke-linejoin:round;stroke-miterlimit:2;">
    <g transform="matrix(1,0,0,1,-7776.85,-1398.89)">
        <g transform="matrix(1.02732,0,0,0.993502,-143.405,169.52)">
            <g transform="matrix(0.587627,0,0,0.607632,3169.95,381.277)">
                <g transform="matrix(0.85104,0,0,1,1177.21,0)">
                    <text x="7902.85px" y="1581.81px" style="font-family:'Rubik-ExtraBold', 'Rubik';font-weight:800;font-size:243.443px;fill:rgb(35,55,66);">S<tspan x="8064.89px 8235.09px " y="1581.81px 1581.81px ">VG</tspan></text>
                </g>
                <g transform="matrix(0.85104,0,0,1,1148.86,0)">
                    <text x="7712.55px" y="1825.25px" style="font-family:'Rubik-ExtraBold', 'Rubik';font-weight:800;font-size:243.443px;fill:rgb(35,55,66);">P<tspan x="7884.42px 8005.81px 8161.86px 8246.39px 8398.29px 8549.47px " y="1825.25px 1825.25px 1825.25px 1825.25px 1825.25px 1825.25px ">roject</tspan></text>
                </g>
                <g transform="matrix(0.85104,0,0,1,1160.28,0)">
                    <text x="7789.19px" y="2068.7px" style="font-family:'Rubik-ExtraBold', 'Rubik';font-weight:800;font-size:243.443px;fill:rgb(35,55,66);">I<tspan x="7877.07px 8106.4px 8257.57px 8419.46px " y="2068.7px 2068.7px 2068.7px 2068.7px ">mage</tspan></text>
                </g>
            </g>
        </g>
    </g>
</svg>
