
<svg width="100%" height="100%" viewBox="0 0 301 204" version="1.1" xmlns="http://www.w3.org/2000/svg" xmlns:xlink="http://www.w3.org/1999/xlink" xml:space="preserve" xmlns:serif="http://www.serif.com/" style="fill-rule:evenodd;clip-rule:evenodd;stroke-linecap:round;stroke-linejoin:round;stroke-miterlimit:1.5;">
    <g transform="matrix(1,0,0,1,-4348.36,-907.314)">
        <g transform="matrix(2.44607,0,0,1,-765.309,1.30385e-12)">
            <g transform="matrix(0.416715,0,0,3.49192,1273.26,18.4104)">
                <g id="RLC">
                    <g id="Whats-hot">
                        <g transform="matrix(0.981167,0,0,0.289667,-2759.63,-2.89622)">
                            <rect x="4811.56" y="888.801" width="300.19" height="201.187" style="fill:rgb(112,64,244);"/>
                        </g>
                        <g id="desktop" transform="matrix(1,0,0,1,-41.7155,-3.03718)">
                            <g transform="matrix(1.11976,0,0,0.297545,-3407.2,-11.1128)">
                                <path d="M5009.9,931.814C5009.9,926.549 5006.01,922.275 5001.21,922.275L4855.88,922.275C4851.08,922.275 4847.19,926.549 4847.19,931.814L4847.19,1028.57C4847.19,1033.83 4851.08,1038.11 4855.88,1038.11L5001.21,1038.11C5006.01,1038.11 5009.9,1033.83 5009.9,1028.57L5009.9,931.814Z" style="fill:rgb(238,236,236);"/>
                                <clipPath id="_clip1">
                                    <path d="M5009.9,931.814C5009.9,926.549 5006.01,922.275 5001.21,922.275L4855.88,922.275C4851.08,922.275 4847.19,926.549 4847.19,931.814L4847.19,1028.57C4847.19,1033.83 4851.08,1038.11 4855.88,1038.11L5001.21,1038.11C5006.01,1038.11 5009.9,1033.83 5009.9,1028.57L5009.9,931.814Z"/>
                                </clipPath>
                                <g clip-path="url(#_clip1)">
                                    <g transform="matrix(0.876229,0,0,0.962573,578.449,47.8865)">
                                        <rect x="4873.71" y="926.817" width="181.621" height="100.029" style="fill:rgb(253,181,70);stroke:rgb(65,64,77);stroke-width:1.5px;"/>
                                    </g>
                                </g>
                                <path d="M5009.9,931.814C5009.9,926.549 5006.01,922.275 5001.21,922.275L4855.88,922.275C4851.08,922.275 4847.19,926.549 4847.19,931.814L4847.19,1028.57C4847.19,1033.83 4851.08,1038.11 4855.88,1038.11L5001.21,1038.11C5006.01,1038.11 5009.9,1033.83 5009.9,1028.57L5009.9,931.814ZM5006.83,931.814L5006.83,1028.57C5006.83,1031.97 5004.31,1034.74 5001.21,1034.74L4855.88,1034.74C4852.78,1034.74 4850.26,1031.97 4850.26,1028.57C4850.26,1028.57 4850.26,931.814 4850.26,931.814C4850.26,928.408 4852.78,925.644 4855.88,925.644C4855.88,925.644 5001.21,925.644 5001.21,925.644C5004.31,925.644 5006.83,928.408 5006.83,931.814Z" style="fill:rgb(65,64,77);"/>
                            </g>
                            <g transform="matrix(1.11976,0,0,0.297545,-3454.99,-13.3898)">
                                <path d="M4891.77,947.498L5050.67,947.498" style="fill:none;stroke:rgb(65,64,77);stroke-width:1.83px;stroke-linecap:square;"/>
                            </g>
                            <g transform="matrix(0.560476,0,0,0.163606,-698.793,114.817)">
                                <circle cx="4889.13" cy="925.844" r="4.791" style="fill:white;"/>
                                <path d="M4889.13,921.052C4891.77,921.052 4893.92,923.199 4893.92,925.844C4893.92,928.488 4891.77,930.635 4889.13,930.635C4886.48,930.635 4884.34,928.488 4884.34,925.844C4884.34,923.199 4886.48,921.052 4889.13,921.052ZM4889.13,922.803C4890.81,922.803 4892.17,924.165 4892.17,925.844C4892.17,927.522 4890.81,928.885 4889.13,928.885C4887.45,928.885 4886.09,927.522 4886.09,925.844C4886.09,924.165 4887.45,922.803 4889.13,922.803Z" style="fill:rgb(65,64,77);"/>
                            </g>
                            <g transform="matrix(0.560476,0,0,0.163606,-691.288,114.781)">
                                <circle cx="4889.13" cy="925.844" r="4.791" style="fill:white;"/>
                                <path d="M4889.13,921.052C4891.77,921.052 4893.92,923.199 4893.92,925.844C4893.92,928.488 4891.77,930.635 4889.13,930.635C4886.48,930.635 4884.34,928.488 4884.34,925.844C4884.34,923.199 4886.48,921.052 4889.13,921.052ZM4889.13,922.803C4890.81,922.803 4892.17,924.165 4892.17,925.844C4892.17,927.522 4890.81,928.885 4889.13,928.885C4887.45,928.885 4886.09,927.522 4886.09,925.844C4886.09,924.165 4887.45,922.803 4889.13,922.803Z" style="fill:rgb(65,64,77);"/>
                            </g>
                            <g transform="matrix(0.560476,0,0,0.163606,-706.297,114.781)">
                                <circle cx="4889.13" cy="925.844" r="4.791" style="fill:white;"/>
                                <path d="M4889.13,921.052C4891.77,921.052 4893.92,923.199 4893.92,925.844C4893.92,928.488 4891.77,930.635 4889.13,930.635C4886.48,930.635 4884.34,928.488 4884.34,925.844C4884.34,923.199 4886.48,921.052 4889.13,921.052ZM4889.13,922.803C4890.81,922.803 4892.17,924.165 4892.17,925.844C4892.17,927.522 4890.81,928.885 4889.13,928.885C4887.45,928.885 4886.09,927.522 4886.09,925.844C4886.09,924.165 4887.45,922.803 4889.13,922.803Z" style="fill:rgb(65,64,77);"/>
                            </g>
                            <g transform="matrix(1.18834,0,0,0.286408,-3797.08,-0.260355)">
                                <path d="M5009.9,930.509C5009.9,928.851 5008.78,927.505 5007.42,927.505L4932.56,927.505C4931.19,927.505 4930.08,928.851 4930.08,930.509L4930.08,930.575C4930.08,932.233 4931.19,933.579 4932.56,933.579L5007.42,933.579C5008.78,933.579 5009.9,932.233 5009.9,930.575L5009.9,930.509Z" style="fill:white;"/>
                                <path d="M5009.69,931.764C5009.31,932.831 5008.44,933.579 5007.42,933.579L4932.56,933.579C4931.19,933.579 4930.08,932.233 4930.08,930.575L4930.08,930.509C4930.08,928.851 4931.19,927.505 4932.56,927.505L5007.42,927.505C5008.78,927.505 5009.9,928.851 5009.9,930.509L5009.9,930.575C5009.9,930.997 5009.82,931.399 5009.69,931.763L5008.66,930.509C5008.66,929.679 5008.1,929.004 5007.42,929.004C5007.42,929.004 4932.56,929.004 4932.56,929.004C4931.88,929.004 4931.32,929.679 4931.32,930.509L4931.32,930.576L4931.32,930.575C4931.32,931.405 4931.88,932.079 4932.56,932.079C4932.56,932.079 5007.42,932.079 5007.42,932.079C5008.1,932.079 5008.66,931.405 5008.66,930.575L5008.66,930.575L5008.66,930.511L5009.69,931.764Z" style="fill:rgb(65,64,77);"/>
                            </g>
                            <g transform="matrix(0.981167,0,0,0.319609,-2759.63,-31.5659)">
                                <rect x="4894.28" y="950.757" width="141.234" height="19.654" style="fill:white;stroke:rgb(65,64,77);stroke-width:1.89px;"/>
                            </g>
                            <g transform="matrix(0.981167,0,0,0.267817,-2759.63,18.1673)">
                                <rect x="4894.28" y="977.187" width="35.331" height="55.903" style="fill:white;stroke:rgb(65,64,77);stroke-width:2.07px;"/>
                            </g>
                            <g transform="matrix(1.02259,0,0,0.267817,-2968.23,18.1673)">
                                <rect x="4939.39" y="977.187" width="96.12" height="55.903" style="fill:white;stroke:rgb(65,64,77);stroke-width:2.02px;"/>
                            </g>
                        </g>
                        <g id="mobile" transform="matrix(1.56577,0,0,1.01528,-1028.71,-5.80398)">
                            <g transform="matrix(0.981167,0,0,0.286408,-2759.63,-3.73432e-13)">
                                <path d="M4903.09,995.044C4903.09,989.122 4899.98,984.314 4896.14,984.314L4851.62,984.314C4847.78,984.314 4844.66,989.122 4844.66,995.044L4844.66,1072.03C4844.66,1077.95 4847.78,1082.76 4851.62,1082.76L4896.14,1082.76C4899.98,1082.76 4903.09,1077.95 4903.09,1072.03L4903.09,995.044Z" style="fill:rgb(253,181,70);"/>
                                <path d="M4903.09,995.044C4903.09,989.122 4899.98,984.314 4896.14,984.314L4851.62,984.314C4847.78,984.314 4844.66,989.122 4844.66,995.044L4844.66,1072.03C4844.66,1077.95 4847.78,1082.76 4851.62,1082.76L4896.14,1082.76C4899.98,1082.76 4903.09,1077.95 4903.09,1072.03L4903.09,995.044ZM4901.18,995.044L4901.18,1072.03C4901.18,1076.32 4898.92,1079.8 4896.14,1079.8C4896.14,1079.8 4851.62,1079.8 4851.62,1079.8C4848.84,1079.8 4846.58,1076.32 4846.58,1072.03C4846.58,1072.03 4846.58,995.044 4846.58,995.044C4846.58,990.753 4848.84,987.269 4851.62,987.269C4851.62,987.269 4896.14,987.269 4896.14,987.269C4898.92,987.269 4901.18,990.753 4901.18,995.044Z" style="fill:rgb(65,64,77);"/>
                            </g>
                            <g transform="matrix(0.92358,0,0,-0.263298,-2479.42,570.488)">
                                <rect x="4852.18" y="1002.23" width="44.389" height="16.761" style="fill:white;stroke:rgb(65,64,77);stroke-width:1.62px;"/>
                            </g>
                            <g transform="matrix(0.92358,0,0,0.364205,-2479.42,-70.3115)">
                                <rect x="4852.18" y="1002.23" width="44.389" height="16.761" style="fill:white;stroke:rgb(65,64,77);stroke-width:1.44px;"/>
                            </g>
                            <g transform="matrix(0.92358,0,0,-0.395874,-2479.42,690.077)">
                                <rect x="4852.18" y="1002.23" width="44.389" height="16.761" style="fill:white;stroke:rgb(65,64,77);stroke-width:1.39px;"/>
                            </g>
                        </g>
                        <g id="mobile1" serif:id="mobile" transform="matrix(0.829869,0,0,0.829869,535.843,51.6951)">
                            <g transform="matrix(0.981167,0,0,0.286408,-2759.63,-3.73432e-13)">
                                <path d="M4903.09,991.272C4903.09,987.432 4899.98,984.314 4896.14,984.314L4851.62,984.314C4847.78,984.314 4844.66,987.432 4844.66,991.272L4844.66,1075.8C4844.66,1079.64 4847.78,1082.76 4851.62,1082.76L4896.14,1082.76C4899.98,1082.76 4903.09,1079.64 4903.09,1075.8L4903.09,991.272Z" style="fill:rgb(253,181,70);"/>
                                <path d="M4903.09,991.272C4903.09,987.432 4899.98,984.314 4896.14,984.314L4851.62,984.314C4847.78,984.314 4844.66,987.432 4844.66,991.272L4844.66,1075.8C4844.66,1079.64 4847.78,1082.76 4851.62,1082.76L4896.14,1082.76C4899.98,1082.76 4903.09,1079.64 4903.09,1075.8L4903.09,991.272ZM4900.08,991.272L4900.08,1075.8C4900.08,1077.97 4898.31,1079.74 4896.14,1079.74C4896.14,1079.74 4851.62,1079.74 4851.62,1079.74C4849.44,1079.74 4847.68,1077.97 4847.68,1075.8L4847.68,991.272C4847.68,989.094 4849.44,987.326 4851.62,987.326L4896.14,987.326C4898.31,987.326 4900.08,989.094 4900.08,991.272Z" style="fill:rgb(65,64,77);"/>
                            </g>
                            <g transform="matrix(-0.91183,3.25962e-17,-2.28127e-16,-0.543762,6467.81,820.945)">
                                <rect x="4862.08" y="987.825" width="26.239" height="3.069" style="fill:rgb(65,64,77);stroke:rgb(65,64,77);stroke-width:0.81px;"/>
                            </g>
                            <g transform="matrix(0.92358,0,0,0.263298,-2479.42,22.803)">
                                <rect x="4852.18" y="1002.23" width="44.389" height="16.761" style="fill:white;stroke:rgb(65,64,77);stroke-width:2.59px;"/>
                            </g>
                            <g transform="matrix(0.92358,0,0,0.364205,-2479.42,-72.5525)">
                                <rect x="4852.18" y="1002.23" width="44.389" height="16.761" style="fill:white;stroke:rgb(65,64,77);stroke-width:2.15px;"/>
                            </g>
                            <g transform="matrix(0.92358,0,0,0.395874,-2479.42,-96.7867)">
                                <rect x="4852.18" y="1002.23" width="44.389" height="16.761" style="fill:white;stroke:rgb(65,64,77);stroke-width:2.04px;"/>
                            </g>
                        </g>
                    </g>
                </g>
            </g>
        </g>
    </g>
</svg>
