
<svg width="100%" height="100%" viewBox="0 0 307 198" version="1.1" xmlns="http://www.w3.org/2000/svg" xmlns:xlink="http://www.w3.org/1999/xlink" xml:space="preserve" xmlns:serif="http://www.serif.com/" style="fill-rule:evenodd;clip-rule:evenodd;stroke-linecap:round;stroke-linejoin:round;stroke-miterlimit:1.5;">
    <g transform="matrix(1,0,0,1,-5296.6,-1693.9)">
        <g transform="matrix(0.505316,0,0,3.65507,3678.56,-5575.31)">
            <g transform="matrix(2.34296,0,0,1.10966,-1434.16,1699.99)">
                <g id="RLC">
                    <g id="Whats-hot">
                        <g transform="matrix(0.863554,0,0,0.242451,-2176.27,44.7772)">
                            <rect x="4811.56" y="888.801" width="300.19" height="201.187" style="fill:none;"/>
                        </g>
                        <g id="desktop" transform="matrix(1,0,0,1,-41.7155,-3.03718)">
                            <g transform="matrix(1.11976,0,0,0.297545,-3407.2,-11.1128)">
                                <path d="M5009.9,931.814C5009.9,926.549 5006.01,922.275 5001.21,922.275L4855.88,922.275C4851.08,922.275 4847.19,926.549 4847.19,931.814L4847.19,1028.57C4847.19,1033.83 4851.08,1038.11 4855.88,1038.11L5001.21,1038.11C5006.01,1038.11 5009.9,1033.83 5009.9,1028.57L5009.9,931.814Z" style="fill:rgb(238,236,236);"/>
                                <clipPath id="_clip1">
                                    <path d="M5009.9,931.814C5009.9,926.549 5006.01,922.275 5001.21,922.275L4855.88,922.275C4851.08,922.275 4847.19,926.549 4847.19,931.814L4847.19,1028.57C4847.19,1033.83 4851.08,1038.11 4855.88,1038.11L5001.21,1038.11C5006.01,1038.11 5009.9,1033.83 5009.9,1028.57L5009.9,931.814Z"/>
                                </clipPath>
                                <g clip-path="url(#_clip1)">
                                    <g transform="matrix(0.876229,0,0,0.962573,578.449,47.8865)">
                                        <rect x="4873.71" y="926.817" width="181.621" height="100.029" style="fill:rgb(253,181,70);stroke:rgb(65,64,77);stroke-width:1.29px;"/>
                                    </g>
                                </g>
                                <path d="M5009.9,931.814C5009.9,926.549 5006.01,922.275 5001.21,922.275L4855.88,922.275C4851.08,922.275 4847.19,926.549 4847.19,931.814L4847.19,1028.57C4847.19,1033.83 4851.08,1038.11 4855.88,1038.11L5001.21,1038.11C5006.01,1038.11 5009.9,1033.83 5009.9,1028.57L5009.9,931.814ZM5007.26,931.814L5007.26,1028.57C5007.26,1032.23 5004.55,1035.21 5001.21,1035.21L4855.88,1035.21C4852.54,1035.21 4849.83,1032.23 4849.83,1028.57C4849.83,1028.57 4849.83,931.814 4849.83,931.814C4849.83,928.15 4852.54,925.175 4855.88,925.175C4855.88,925.175 5001.21,925.175 5001.21,925.175C5004.55,925.175 5007.26,928.15 5007.26,931.814Z" style="fill:rgb(65,64,77);"/>
                            </g>
                            <g transform="matrix(1.11976,0,0,0.297545,-3454.99,-13.3898)">
                                <path d="M4891.77,947.498L5050.67,947.498" style="fill:none;stroke:rgb(65,64,77);stroke-width:1.58px;stroke-linecap:square;"/>
                            </g>
                            <g transform="matrix(0.560476,0,0,0.163606,-698.793,114.817)">
                                <circle cx="4889.13" cy="925.844" r="4.791" style="fill:white;"/>
                                <path d="M4889.13,921.052C4891.77,921.052 4893.92,923.199 4893.92,925.844C4893.92,928.488 4891.77,930.635 4889.13,930.635C4886.48,930.635 4884.34,928.488 4884.34,925.844C4884.34,923.199 4886.48,921.052 4889.13,921.052ZM4889.13,922.559C4890.94,922.559 4892.41,924.031 4892.41,925.844C4892.41,927.657 4890.94,929.128 4889.13,929.128C4887.32,929.128 4885.85,927.657 4885.85,925.844C4885.85,924.031 4887.32,922.559 4889.13,922.559Z" style="fill:rgb(65,64,77);"/>
                            </g>
                            <g transform="matrix(0.560476,0,0,0.163606,-691.288,114.781)">
                                <circle cx="4889.13" cy="925.844" r="4.791" style="fill:white;"/>
                                <path d="M4889.13,921.052C4891.77,921.052 4893.92,923.199 4893.92,925.844C4893.92,928.488 4891.77,930.635 4889.13,930.635C4886.48,930.635 4884.34,928.488 4884.34,925.844C4884.34,923.199 4886.48,921.052 4889.13,921.052ZM4889.13,922.559C4890.94,922.559 4892.41,924.031 4892.41,925.844C4892.41,927.657 4890.94,929.128 4889.13,929.128C4887.32,929.128 4885.85,927.657 4885.85,925.844C4885.85,924.031 4887.32,922.559 4889.13,922.559Z" style="fill:rgb(65,64,77);"/>
                            </g>
                            <g transform="matrix(0.560476,0,0,0.163606,-706.297,114.781)">
                                <circle cx="4889.13" cy="925.844" r="4.791" style="fill:white;"/>
                                <path d="M4889.13,921.052C4891.77,921.052 4893.92,923.199 4893.92,925.844C4893.92,928.488 4891.77,930.635 4889.13,930.635C4886.48,930.635 4884.34,928.488 4884.34,925.844C4884.34,923.199 4886.48,921.052 4889.13,921.052ZM4889.13,922.559C4890.94,922.559 4892.41,924.031 4892.41,925.844C4892.41,927.657 4890.94,929.128 4889.13,929.128C4887.32,929.128 4885.85,927.657 4885.85,925.844C4885.85,924.031 4887.32,922.559 4889.13,922.559Z" style="fill:rgb(65,64,77);"/>
                            </g>
                            <g transform="matrix(1.18834,0,0,0.286408,-3797.08,-0.260355)">
                                <path d="M5009.9,930.509C5009.9,928.851 5008.78,927.505 5007.42,927.505L4932.56,927.505C4931.19,927.505 4930.08,928.851 4930.08,930.509L4930.08,930.575C4930.08,932.233 4931.19,933.579 4932.56,933.579L5007.42,933.579C5008.78,933.579 5009.9,932.233 5009.9,930.575L5009.9,930.509Z" style="fill:white;"/>
                                <path d="M5009.73,931.662C5009.37,932.783 5008.47,933.579 5007.42,933.579L4932.56,933.579C4931.19,933.579 4930.08,932.233 4930.08,930.575L4930.08,930.509C4930.08,928.851 4931.19,927.505 4932.56,927.505L5007.42,927.505C5008.78,927.505 5009.9,928.851 5009.9,930.509L5009.9,930.575C5009.9,930.94 5009.84,931.291 5009.74,931.615L5008.83,930.509C5008.83,929.563 5008.2,928.796 5007.42,928.796L4932.56,928.796C4931.78,928.796 4931.15,929.563 4931.15,930.509L4931.15,930.511C4931.15,930.536 4931.14,930.565 4931.13,930.599L4931.15,930.575C4931.15,931.52 4931.78,932.288 4932.56,932.288L5007.42,932.288C5008.2,932.288 5008.83,931.52 5008.83,930.575L5009.73,931.662ZM5009.74,931.615L5009.73,931.662L5008.83,930.573L5008.83,930.511L5009.74,931.615Z" style="fill:rgb(65,64,77);"/>
                            </g>
                            <g transform="matrix(0.981167,0,0,0.319609,-2759.63,-31.5659)">
                                <rect x="4894.28" y="950.757" width="141.234" height="19.654" style="fill:white;stroke:rgb(65,64,77);stroke-width:1.62px;"/>
                            </g>
                            <g transform="matrix(0.981167,0,0,0.267817,-2759.63,18.1673)">
                                <rect x="4894.28" y="977.187" width="35.331" height="55.903" style="fill:white;stroke:rgb(65,64,77);stroke-width:1.78px;"/>
                            </g>
                            <g transform="matrix(1.02259,0,0,0.267817,-2968.23,18.1673)">
                                <rect x="4939.39" y="977.187" width="96.12" height="55.903" style="fill:white;stroke:rgb(65,64,77);stroke-width:1.74px;"/>
                            </g>
                        </g>
                        <g id="mobile" transform="matrix(1.56577,0,0,1.01528,-1028.71,-5.80398)">
                            <g transform="matrix(0.981167,0,0,0.286408,-2759.63,-3.73432e-13)">
                                <path d="M4903.09,995.044C4903.09,989.122 4899.98,984.314 4896.14,984.314L4851.62,984.314C4847.78,984.314 4844.66,989.122 4844.66,995.044L4844.66,1072.03C4844.66,1077.95 4847.78,1082.76 4851.62,1082.76L4896.14,1082.76C4899.98,1082.76 4903.09,1077.95 4903.09,1072.03L4903.09,995.044Z" style="fill:rgb(253,181,70);"/>
                                <path d="M4903.09,995.044C4903.09,989.122 4899.98,984.314 4896.14,984.314L4851.62,984.314C4847.78,984.314 4844.66,989.122 4844.66,995.044L4844.66,1072.03C4844.66,1077.95 4847.78,1082.76 4851.62,1082.76L4896.14,1082.76C4899.98,1082.76 4903.09,1077.95 4903.09,1072.03L4903.09,995.044ZM4901.44,995.044L4901.44,1072.03C4901.44,1076.54 4899.07,1080.21 4896.14,1080.21L4851.62,1080.21C4848.69,1080.21 4846.31,1076.54 4846.31,1072.03L4846.31,995.044C4846.31,990.526 4848.69,986.858 4851.62,986.858C4851.62,986.858 4896.14,986.858 4896.14,986.858C4899.07,986.858 4901.44,990.526 4901.44,995.044Z" style="fill:rgb(65,64,77);"/>
                            </g>
                            <g transform="matrix(0.92358,0,0,-0.263298,-2479.42,570.488)">
                                <rect x="4852.18" y="1002.23" width="44.389" height="16.761" style="fill:white;stroke:rgb(65,64,77);stroke-width:1.4px;"/>
                            </g>
                            <g transform="matrix(0.92358,0,0,0.364205,-2479.42,-70.3115)">
                                <rect x="4852.18" y="1002.23" width="44.389" height="16.761" style="fill:white;stroke:rgb(65,64,77);stroke-width:1.24px;"/>
                            </g>
                            <g transform="matrix(0.92358,0,0,-0.395874,-2479.42,690.077)">
                                <rect x="4852.18" y="1002.23" width="44.389" height="16.761" style="fill:white;stroke:rgb(65,64,77);stroke-width:1.2px;"/>
                            </g>
                        </g>
                        <g id="mobile1" serif:id="mobile" transform="matrix(0.829869,0,0,0.829869,535.843,51.6951)">
                            <g transform="matrix(0.981167,0,0,0.286408,-2759.63,-3.73432e-13)">
                                <path d="M4903.09,991.272C4903.09,987.432 4899.98,984.314 4896.14,984.314L4851.62,984.314C4847.78,984.314 4844.66,987.432 4844.66,991.272L4844.66,1075.8C4844.66,1079.64 4847.78,1082.76 4851.62,1082.76L4896.14,1082.76C4899.98,1082.76 4903.09,1079.64 4903.09,1075.8L4903.09,991.272Z" style="fill:rgb(253,181,70);"/>
                                <path d="M4903.09,991.272C4903.09,987.432 4899.98,984.314 4896.14,984.314L4851.62,984.314C4847.78,984.314 4844.66,987.432 4844.66,991.272L4844.66,1075.8C4844.66,1079.64 4847.78,1082.76 4851.62,1082.76L4896.14,1082.76C4899.98,1082.76 4903.09,1079.64 4903.09,1075.8L4903.09,991.272ZM4900.5,991.272L4900.5,1075.8C4900.5,1078.21 4898.55,1080.16 4896.14,1080.16L4851.62,1080.16C4849.21,1080.16 4847.26,1078.21 4847.26,1075.8C4847.26,1075.8 4847.26,991.272 4847.26,991.272C4847.26,988.863 4849.21,986.907 4851.62,986.907L4896.14,986.907C4898.55,986.907 4900.5,988.863 4900.5,991.272Z" style="fill:rgb(65,64,77);"/>
                            </g>
                            <g transform="matrix(-0.91183,3.25962e-17,-2.28127e-16,-0.543762,6467.81,820.945)">
                                <rect x="4862.08" y="987.825" width="26.239" height="3.069" style="fill:rgb(65,64,77);stroke:rgb(65,64,77);stroke-width:0.69px;"/>
                            </g>
                            <g transform="matrix(0.92358,0,0,0.263298,-2479.42,22.803)">
                                <rect x="4852.18" y="1002.23" width="44.389" height="16.761" style="fill:white;stroke:rgb(65,64,77);stroke-width:2.23px;"/>
                            </g>
                            <g transform="matrix(0.92358,0,0,0.364205,-2479.42,-72.5525)">
                                <rect x="4852.18" y="1002.23" width="44.389" height="16.761" style="fill:white;stroke:rgb(65,64,77);stroke-width:1.85px;"/>
                            </g>
                            <g transform="matrix(0.92358,0,0,0.395874,-2479.42,-96.7867)">
                                <rect x="4852.18" y="1002.23" width="44.389" height="16.761" style="fill:white;stroke:rgb(65,64,77);stroke-width:1.75px;"/>
                            </g>
                        </g>
                    </g>
                </g>
            </g>
        </g>
    </g>
</svg>
