
<svg width="100%" height="100%" viewBox="0 0 307 199" version="1.1" xmlns="http://www.w3.org/2000/svg" xmlns:xlink="http://www.w3.org/1999/xlink" xml:space="preserve" xmlns:serif="http://www.serif.com/" style="fill-rule:evenodd;clip-rule:evenodd;stroke-linecap:round;stroke-linejoin:round;stroke-miterlimit:1.5;">
    <g transform="matrix(1,0,0,1,-5720.52,-2695.98)">
        <g transform="matrix(1.01931,0,0,3.49192,3698.19,1804.76)">
            <g id="desktop" transform="matrix(1.65234,0,0,1.65234,-1354.52,-179.845)">
                <g transform="matrix(1.11976,0,0,0.297545,-3407.2,-11.1128)">
                    <path d="M5009.9,931.814C5009.9,926.549 5006.01,922.275 5001.21,922.275L4855.88,922.275C4851.08,922.275 4847.19,926.549 4847.19,931.814L4847.19,1028.57C4847.19,1033.83 4851.08,1038.11 4855.88,1038.11L5001.21,1038.11C5006.01,1038.11 5009.9,1033.83 5009.9,1028.57L5009.9,931.814Z" style="fill:rgb(238,236,236);"/>
                    <clipPath id="_clip1">
                        <path d="M5009.9,931.814C5009.9,926.549 5006.01,922.275 5001.21,922.275L4855.88,922.275C4851.08,922.275 4847.19,926.549 4847.19,931.814L4847.19,1028.57C4847.19,1033.83 4851.08,1038.11 4855.88,1038.11L5001.21,1038.11C5006.01,1038.11 5009.9,1033.83 5009.9,1028.57L5009.9,931.814Z"/>
                    </clipPath>
                    <g clip-path="url(#_clip1)">
                        <g transform="matrix(0.876229,0,0,0.962573,578.449,47.8865)">
                            <rect x="4873.71" y="926.817" width="181.621" height="100.029" style="fill:rgb(35,55,66);"/>
                        </g>
                    </g>
                    <path d="M5009.9,931.814C5009.9,926.549 5006.01,922.275 5001.21,922.275L4855.88,922.275C4851.08,922.275 4847.19,926.549 4847.19,931.814L4847.19,1028.57C4847.19,1033.83 4851.08,1038.11 4855.88,1038.11L5001.21,1038.11C5006.01,1038.11 5009.9,1033.83 5009.9,1028.57L5009.9,931.814ZM5008.04,931.814L5008.04,1028.57C5008.04,1032.71 5004.98,1036.07 5001.21,1036.07L4855.88,1036.07C4852.11,1036.07 4849.05,1032.71 4849.05,1028.57C4849.05,1028.57 4849.05,931.814 4849.05,931.814C4849.05,927.674 4852.11,924.314 4855.88,924.314C4855.88,924.314 5001.21,924.314 5001.21,924.314C5004.98,924.314 5008.04,927.674 5008.04,931.814Z" style="fill:rgb(65,64,77);"/>
                </g>
                <g transform="matrix(1.02514,0,0,1.20362,-2974.86,-872.043)">
                    <rect x="4894.28" y="950.757" width="141.234" height="19.654" style="fill:white;stroke:rgb(65,64,77);stroke-width:0.4px;"/>
                </g>
                <g transform="matrix(1.11976,0,0,0.297545,-3454.99,-13.3898)">
                    <path d="M4891.77,947.498L5050.67,947.498" style="fill:none;stroke:rgb(65,64,77);stroke-width:1.11px;stroke-linecap:square;"/>
                </g>
                <g transform="matrix(0.560476,0,0,0.163606,-698.793,114.817)">
                    <circle cx="4889.13" cy="925.844" r="4.791" style="fill:white;"/>
                    <path d="M4889.13,921.052C4891.77,921.052 4893.92,923.199 4893.92,925.844C4893.92,928.488 4891.77,930.635 4889.13,930.635C4886.48,930.635 4884.34,928.488 4884.34,925.844C4884.34,923.199 4886.48,921.052 4889.13,921.052ZM4889.13,922.112C4891.19,922.112 4892.86,923.784 4892.86,925.844C4892.86,927.904 4891.19,929.576 4889.13,929.576C4887.07,929.576 4885.4,927.904 4885.4,925.844C4885.4,923.784 4887.07,922.112 4889.13,922.112Z" style="fill:rgb(65,64,77);"/>
                </g>
                <g transform="matrix(0.560476,0,0,0.163606,-691.288,114.781)">
                    <circle cx="4889.13" cy="925.844" r="4.791" style="fill:white;"/>
                    <path d="M4889.13,921.052C4891.77,921.052 4893.92,923.199 4893.92,925.844C4893.92,928.488 4891.77,930.635 4889.13,930.635C4886.48,930.635 4884.34,928.488 4884.34,925.844C4884.34,923.199 4886.48,921.052 4889.13,921.052ZM4889.13,922.112C4891.19,922.112 4892.86,923.784 4892.86,925.844C4892.86,927.904 4891.19,929.576 4889.13,929.576C4887.07,929.576 4885.4,927.904 4885.4,925.844C4885.4,923.784 4887.07,922.112 4889.13,922.112Z" style="fill:rgb(65,64,77);"/>
                </g>
                <g transform="matrix(0.560476,0,0,0.163606,-706.297,114.781)">
                    <circle cx="4889.13" cy="925.844" r="4.791" style="fill:white;"/>
                    <path d="M4889.13,921.052C4891.77,921.052 4893.92,923.199 4893.92,925.844C4893.92,928.488 4891.77,930.635 4889.13,930.635C4886.48,930.635 4884.34,928.488 4884.34,925.844C4884.34,923.199 4886.48,921.052 4889.13,921.052ZM4889.13,922.112C4891.19,922.112 4892.86,923.784 4892.86,925.844C4892.86,927.904 4891.19,929.576 4889.13,929.576C4887.07,929.576 4885.4,927.904 4885.4,925.844C4885.4,923.784 4887.07,922.112 4889.13,922.112Z" style="fill:rgb(65,64,77);"/>
                </g>
                <g transform="matrix(0.551982,0,0,0.166864,-1153.65,-103.135)">
                    <ellipse cx="5824.82" cy="2291.06" rx="20.427" ry="16.702" style="fill:none;"/>
                    <clipPath id="_clip2">
                        <ellipse cx="5824.82" cy="2291.06" rx="20.427" ry="16.702"/>
                    </clipPath>
                    <g clip-path="url(#_clip2)">
                        <g transform="matrix(1.02307,0,0,1.24866,-131.207,-560.913)">
                            <ellipse cx="5821.73" cy="2283.82" rx="6.482" ry="4.622" style="fill:white;stroke:rgb(65,64,77);stroke-width:1.85px;stroke-linecap:butt;stroke-linejoin:miter;stroke-miterlimit:2;"/>
                        </g>
                        <g transform="matrix(0.911161,0,0,0.981867,519.313,45.0059)">
                            <path d="M5827.57,2295.46C5827.57,2294.28 5826.51,2293.33 5825.19,2293.33L5820.42,2293.33C5819.11,2293.33 5818.04,2294.28 5818.04,2295.46L5818.04,2310.43C5818.04,2311.61 5819.11,2312.57 5820.42,2312.57L5825.19,2312.57C5826.51,2312.57 5827.57,2311.61 5827.57,2310.43L5827.57,2295.46Z" style="fill:white;stroke:rgb(65,64,77);stroke-width:2.23px;stroke-linecap:butt;stroke-linejoin:miter;stroke-miterlimit:2;"/>
                        </g>
                    </g>
                    <ellipse cx="5824.82" cy="2291.06" rx="20.427" ry="16.702" style="fill:none;stroke:rgb(35,55,66);stroke-width:2.11px;stroke-linecap:butt;stroke-linejoin:miter;stroke-miterlimit:2;"/>
                </g>
                <g transform="matrix(0.593736,0,0,0.173315,-1394.65,-116.93)">
                    <rect x="5865.25" y="2268.67" width="154" height="100.142" style="fill:none;stroke:rgb(35,55,66);stroke-width:1px;stroke-linecap:butt;stroke-linejoin:miter;stroke-miterlimit:2;"/>
                </g>
                <g transform="matrix(0.593736,0,0,0.173315,-1395.72,-116.042)">
                    <path d="M5932.25,2276.59C5932.25,2275.91 5931.7,2275.37 5931.03,2275.37L5874.5,2275.37C5873.83,2275.37 5873.28,2275.91 5873.28,2276.59L5873.28,2279.03C5873.28,2279.7 5873.83,2280.25 5874.5,2280.25L5931.03,2280.25C5931.7,2280.25 5932.25,2279.7 5932.25,2279.03L5932.25,2276.59Z" style="fill:rgb(35,55,66);"/>
                </g>
                <g transform="matrix(0.593736,0,0,0.173315,-1395.72,-114.663)">
                    <path d="M5932.25,2276.59C5932.25,2275.91 5931.7,2275.37 5931.03,2275.37L5874.5,2275.37C5873.83,2275.37 5873.28,2275.91 5873.28,2276.59L5873.28,2279.03C5873.28,2279.7 5873.83,2280.25 5874.5,2280.25L5931.03,2280.25C5931.7,2280.25 5932.25,2279.7 5932.25,2279.03L5932.25,2276.59Z" style="fill:rgb(35,55,66);"/>
                </g>
                <g transform="matrix(1.28662,0,0,0.173315,-5465.25,-112.409)">
                    <path d="M5932.25,2276.59C5932.25,2275.91 5932,2275.37 5931.69,2275.37L5873.85,2275.37C5873.53,2275.37 5873.28,2275.91 5873.28,2276.59L5873.28,2279.03C5873.28,2279.7 5873.53,2280.25 5873.85,2280.25L5931.69,2280.25C5932,2280.25 5932.25,2279.7 5932.25,2279.03L5932.25,2276.59Z" style="fill:rgb(35,55,66);"/>
                </g>
                <g transform="matrix(1.28662,0,0,0.173315,-5465.25,-110.222)">
                    <path d="M5932.25,2276.59C5932.25,2275.91 5932,2275.37 5931.69,2275.37L5873.85,2275.37C5873.53,2275.37 5873.28,2275.91 5873.28,2276.59L5873.28,2279.03C5873.28,2279.7 5873.53,2280.25 5873.85,2280.25L5931.69,2280.25C5932,2280.25 5932.25,2279.7 5932.25,2279.03L5932.25,2276.59Z" style="fill:rgb(35,55,66);"/>
                </g>
                <g transform="matrix(0.396881,0,0,0.173315,-233.722,-107.967)">
                    <path d="M5932.25,2276.59C5932.25,2275.91 5931.43,2275.37 5930.43,2275.37L5875.11,2275.37C5874.1,2275.37 5873.28,2275.91 5873.28,2276.59L5873.28,2279.03C5873.28,2279.7 5874.1,2280.25 5875.11,2280.25L5930.43,2280.25C5931.43,2280.25 5932.25,2279.7 5932.25,2279.03L5932.25,2276.59Z" style="fill:rgb(35,55,66);"/>
                </g>
                <g transform="matrix(0.396881,0,0,0.173315,-191.569,-107.967)">
                    <path d="M5932.25,2276.59C5932.25,2275.91 5931.43,2275.37 5930.43,2275.37L5875.11,2275.37C5874.1,2275.37 5873.28,2275.91 5873.28,2276.59L5873.28,2279.03C5873.28,2279.7 5874.1,2280.25 5875.11,2280.25L5930.43,2280.25C5931.43,2280.25 5932.25,2279.7 5932.25,2279.03L5932.25,2276.59Z" style="fill:rgb(35,55,66);"/>
                </g>
                <g transform="matrix(0.396881,0,0,0.173315,-191.569,-105.781)">
                    <path d="M5932.25,2276.59C5932.25,2275.91 5931.43,2275.37 5930.43,2275.37L5875.11,2275.37C5874.1,2275.37 5873.28,2275.91 5873.28,2276.59L5873.28,2279.03C5873.28,2279.7 5874.1,2280.25 5875.11,2280.25L5930.43,2280.25C5931.43,2280.25 5932.25,2279.7 5932.25,2279.03L5932.25,2276.59Z" style="fill:rgb(35,55,66);"/>
                </g>
                <g transform="matrix(0.396881,0,0,0.173315,-233.722,-105.713)">
                    <path d="M5932.25,2276.59C5932.25,2275.91 5931.43,2275.37 5930.43,2275.37L5875.11,2275.37C5874.1,2275.37 5873.28,2275.91 5873.28,2276.59L5873.28,2279.03C5873.28,2279.7 5874.1,2280.25 5875.11,2280.25L5930.43,2280.25C5931.43,2280.25 5932.25,2279.7 5932.25,2279.03L5932.25,2276.59Z" style="fill:rgb(35,55,66);"/>
                </g>
                <g transform="matrix(1.18834,0,0,0.286408,-3797.08,-0.260355)">
                    <path d="M5009.9,930.509C5009.9,928.851 5008.78,927.505 5007.42,927.505L4932.56,927.505C4931.19,927.505 4930.08,928.851 4930.08,930.509L4930.08,930.575C4930.08,932.233 4931.19,933.579 4932.56,933.579L5007.42,933.579C5008.78,933.579 5009.9,932.233 5009.9,930.575L5009.9,930.509Z" style="fill:white;"/>
                    <path d="M5009.82,931.323C5009.54,932.619 5008.57,933.579 5007.42,933.579L4932.56,933.579C4931.19,933.579 4930.08,932.233 4930.08,930.575L4930.08,930.509C4930.08,928.851 4931.19,927.505 4932.56,927.505L5007.42,927.505C5008.78,927.505 5009.9,928.851 5009.9,930.509L5009.9,930.575C5009.9,930.833 5009.87,931.083 5009.82,931.323L5009.15,930.509C5009.15,929.352 5008.37,928.412 5007.42,928.412C5007.42,928.412 4932.56,928.412 4932.56,928.412C4931.61,928.412 4930.83,929.352 4930.83,930.509L4930.83,930.511C4930.83,930.537 4930.82,930.571 4930.8,930.611L4930.83,930.575C4930.83,931.732 4931.61,932.671 4932.56,932.671C4932.56,932.671 5007.42,932.671 5007.42,932.671C5008.37,932.671 5009.15,931.732 5009.15,930.575L5009.15,930.575L5009.15,930.511L5009.82,931.323Z" style="fill:rgb(65,64,77);"/>
                </g>
            </g>
        </g>
    </g>
</svg>
