
<svg width="100%" height="100%" viewBox="0 0 890 620" version="1.1" xmlns="http://www.w3.org/2000/svg" xmlns:xlink="http://www.w3.org/1999/xlink" xml:space="preserve" xmlns:serif="http://www.serif.com/" style="fill-rule:evenodd;clip-rule:evenodd;stroke-linecap:round;stroke-linejoin:round;stroke-miterlimit:1.5;">
    <g transform="matrix(1,0,0,1,0,-1992.12)">
        <g id="Artboard1" transform="matrix(0.951471,0,0,0.916207,0,2013.65)">
            <rect x="0" y="-23.502" width="935.394" height="676.703" style="fill:none;"/>
            <g transform="matrix(1.74187,0,0,2.0587,-16.6454,-6.10048)">
                <g transform="matrix(0.603368,0,0,0.530167,-8.47873,-29.1189)">
                    <path d="M913.16,72.415C913.16,55.803 899.674,42.317 883.062,42.317L63.949,42.317C47.337,42.317 33.85,55.803 33.85,72.415L33.85,625.477C33.85,642.088 47.337,655.575 63.949,655.575L883.062,655.575C899.674,655.575 913.16,642.088 913.16,625.477L913.16,72.415Z" style="fill:rgb(34,52,70);"/>
                    <clipPath id="_clip1">
                        <path d="M913.16,72.415C913.16,55.803 899.674,42.317 883.062,42.317L63.949,42.317C47.337,42.317 33.85,55.803 33.85,72.415L33.85,625.477C33.85,642.088 47.337,655.575 63.949,655.575L883.062,655.575C899.674,655.575 913.16,642.088 913.16,625.477L913.16,72.415Z"/>
                    </clipPath>
                    <g clip-path="url(#_clip1)">
                        <g transform="matrix(1,0,0,0.764655,15.2218,32.3063)">
                            <rect x="18.628" y="13.091" width="879.31" height="79.165" style="fill:rgb(200,199,201);"/>
                        </g>
                    </g>
                </g>
                <g transform="matrix(0.440072,0,0,0.439715,6.61232,-20.1394)">
                    <circle cx="74.148" cy="67.093" r="14.419" style="fill:rgb(254,95,87);"/>
                </g>
                <g transform="matrix(0.440072,0,0,0.439715,25.5791,-20.1394)">
                    <circle cx="74.148" cy="67.093" r="14.419" style="fill:rgb(254,188,46);"/>
                </g>
                <g transform="matrix(0.440072,0,0,0.439715,44.5459,-20.1394)">
                    <circle cx="74.148" cy="67.093" r="14.419" style="fill:rgb(40,200,64);"/>
                </g>
            </g>
            <g transform="matrix(1.051,0,0,7.16029,408.761,-14973.8)">
                <path d="M405.739,2124.2C405.739,2123.42 401.617,2122.8 396.539,2122.8L167.465,2122.8C162.387,2122.8 158.265,2123.42 158.265,2124.2L158.265,2169.58C158.265,2170.35 162.387,2170.98 167.465,2170.98L396.539,2170.98C401.617,2170.98 405.739,2170.35 405.739,2169.58L405.739,2124.2Z" style="fill:rgb(249,249,249);"/>
            </g>
            <g transform="matrix(1.051,0,0,1.09146,-2.24615,-2204.62)">
                <path d="M776.11,2263.35C776.11,2263.31 776.073,2263.27 776.026,2263.27L570.101,2263.27C570.055,2263.27 570.017,2263.31 570.017,2263.35L570.017,2292.48C570.017,2292.53 570.055,2292.56 570.101,2292.56L776.026,2292.56C776.073,2292.56 776.11,2292.53 776.11,2292.48L776.11,2263.35Z" style="fill:none;stroke:rgb(205,205,205);stroke-width:2px;"/>
            </g>
            <g transform="matrix(1.051,0,0,1.09146,-2.24615,-2155.45)">
                <path d="M776.11,2263.35C776.11,2263.31 776.073,2263.27 776.026,2263.27L570.101,2263.27C570.055,2263.27 570.017,2263.31 570.017,2263.35L570.017,2292.48C570.017,2292.53 570.055,2292.56 570.101,2292.56L776.026,2292.56C776.073,2292.56 776.11,2292.53 776.11,2292.48L776.11,2263.35Z" style="fill:none;stroke:rgb(205,205,205);stroke-width:2px;"/>
            </g>
            <g transform="matrix(1.051,0,0,1.09146,-2.24615,-2103.71)">
                <path d="M776.11,2263.35C776.11,2263.31 776.073,2263.27 776.026,2263.27L570.101,2263.27C570.055,2263.27 570.017,2263.31 570.017,2263.35L570.017,2292.48C570.017,2292.53 570.055,2292.56 570.101,2292.56L776.026,2292.56C776.073,2292.56 776.11,2292.53 776.11,2292.48L776.11,2263.35Z" style="fill:none;stroke:rgb(205,205,205);stroke-width:2px;"/>
            </g>
            <g transform="matrix(1.051,0,0,1.09146,-2.24615,-2045.81)">
                <path d="M776.11,2263.35C776.11,2263.31 776.073,2263.27 776.026,2263.27L570.101,2263.27C570.055,2263.27 570.017,2263.31 570.017,2263.35L570.017,2292.48C570.017,2292.53 570.055,2292.56 570.101,2292.56L776.026,2292.56C776.073,2292.56 776.11,2292.53 776.11,2292.48L776.11,2263.35Z" style="fill:none;stroke:rgb(205,205,205);stroke-width:2px;"/>
            </g>
            <g transform="matrix(1.051,0,0,1.32826,408.761,-2667.77)">
                <path d="M405.739,2124.59C405.739,2123.6 404.762,2122.8 403.559,2122.8L160.445,2122.8C159.242,2122.8 158.265,2123.6 158.265,2124.59L158.265,2169.19C158.265,2170.18 159.242,2170.98 160.445,2170.98L403.559,2170.98C404.762,2170.98 405.739,2170.18 405.739,2169.19L405.739,2124.59Z" style="fill:rgb(201,103,39);"/>
            </g>
            <g transform="matrix(0.580251,0,0,0.733319,541.515,-1048.77)">
                <path d="M405.739,2124.59C405.739,2123.6 404.762,2122.8 403.559,2122.8L160.445,2122.8C159.242,2122.8 158.265,2123.6 158.265,2124.59L158.265,2169.19C158.265,2170.18 159.242,2170.98 160.445,2170.98L403.559,2170.98C404.762,2170.98 405.739,2170.18 405.739,2169.19L405.739,2124.59Z" style="fill:rgb(118,175,61);"/>
            </g>
            <g transform="matrix(1.051,0,0,1.32826,-95.1835,-2567.94)">
                <path d="M405.739,2124.59C405.739,2123.6 404.762,2122.8 403.559,2122.8L160.445,2122.8C159.242,2122.8 158.265,2123.6 158.265,2124.59L158.265,2169.19C158.265,2170.18 159.242,2170.98 160.445,2170.98L403.559,2170.98C404.762,2170.98 405.739,2170.18 405.739,2169.19L405.739,2124.59Z" style="fill:rgb(249,249,249);"/>
            </g>
            <g transform="matrix(1.19911,0,0,0.320586,-118.504,-343.334)">
                <path d="M405.739,2127.38C405.739,2124.85 405.21,2122.8 404.558,2122.8L159.446,2122.8C158.794,2122.8 158.265,2124.85 158.265,2127.38L158.265,2166.39C158.265,2168.92 158.794,2170.98 159.446,2170.98L404.558,2170.98C405.21,2170.98 405.739,2168.92 405.739,2166.39L405.739,2127.38Z" style="fill:rgb(229,229,229);"/>
            </g>
            <g transform="matrix(1.36779,0,0,0.320586,-145.201,-319.712)">
                <path d="M405.739,2127.38C405.739,2124.85 405.275,2122.8 404.704,2122.8L159.3,2122.8C158.729,2122.8 158.265,2124.85 158.265,2127.38L158.265,2166.39C158.265,2168.92 158.729,2170.98 159.3,2170.98L404.704,2170.98C405.275,2170.98 405.739,2168.92 405.739,2166.39L405.739,2127.38Z" style="fill:rgb(229,229,229);"/>
            </g>
            <g transform="matrix(1.28226,0,0,0.320586,-131.664,-297.459)">
                <path d="M405.739,2127.38C405.739,2124.85 405.244,2122.8 404.635,2122.8L159.37,2122.8C158.76,2122.8 158.265,2124.85 158.265,2127.38L158.265,2166.39C158.265,2168.92 158.76,2170.98 159.37,2170.98L404.635,2170.98C405.244,2170.98 405.739,2168.92 405.739,2166.39L405.739,2127.38Z" style="fill:rgb(229,229,229);"/>
            </g>
        </g>
    </g>
</svg>
