
<svg width="100%" height="100%" viewBox="0 0 301 199" version="1.1" xmlns="http://www.w3.org/2000/svg" xmlns:xlink="http://www.w3.org/1999/xlink" xml:space="preserve" xmlns:serif="http://www.serif.com/" style="fill-rule:evenodd;clip-rule:evenodd;stroke-linecap:round;stroke-linejoin:round;stroke-miterlimit:1.5;">
    <g transform="matrix(1,0,0,1,-5272.75,-2695.98)">
        <g transform="matrix(0.99968,0,0,3.49192,3289.37,1804.76)">
            <g id="desktop" transform="matrix(1.65234,0,0,1.65234,-1354.52,-179.845)">
                <g transform="matrix(1.11976,0,0,0.297545,-3407.2,-11.1128)">
                    <path d="M5009.9,931.814C5009.9,926.549 5005.93,922.275 5001.04,922.275L4856.05,922.275C4851.16,922.275 4847.19,926.549 4847.19,931.814L4847.19,1028.57C4847.19,1033.83 4851.16,1038.11 4856.05,1038.11L5001.04,1038.11C5005.93,1038.11 5009.9,1033.83 5009.9,1028.57L5009.9,931.814Z" style="fill:rgb(238,236,236);"/>
                    <clipPath id="_clip1">
                        <path d="M5009.9,931.814C5009.9,926.549 5005.93,922.275 5001.04,922.275L4856.05,922.275C4851.16,922.275 4847.19,926.549 4847.19,931.814L4847.19,1028.57C4847.19,1033.83 4851.16,1038.11 4856.05,1038.11L5001.04,1038.11C5005.93,1038.11 5009.9,1033.83 5009.9,1028.57L5009.9,931.814Z"/>
                    </clipPath>
                    <g clip-path="url(#_clip1)">
                        <g transform="matrix(0.876229,0,0,0.962573,578.449,47.8865)">
                            <rect x="4873.71" y="926.817" width="181.621" height="100.029" style="fill:rgb(112,64,244);stroke:rgb(65,64,77);stroke-width:0.92px;"/>
                        </g>
                    </g>
                    <path d="M5009.9,931.814C5009.9,926.549 5005.93,922.275 5001.04,922.275L4856.05,922.275C4851.16,922.275 4847.19,926.549 4847.19,931.814L4847.19,1028.57C4847.19,1033.83 4851.16,1038.11 4856.05,1038.11L5001.04,1038.11C5005.93,1038.11 5009.9,1033.83 5009.9,1028.57L5009.9,931.814ZM5008,931.814L5008,1028.57C5008,1032.71 5004.89,1036.07 5001.04,1036.07L4856.05,1036.07C4852.2,1036.07 4849.09,1032.71 4849.09,1028.57C4849.09,1028.57 4849.09,931.814 4849.09,931.814C4849.09,927.674 4852.2,924.314 4856.05,924.314C4856.05,924.314 5001.04,924.314 5001.04,924.314C5004.89,924.314 5008,927.674 5008,931.814Z" style="fill:rgb(65,64,77);"/>
                </g>
                <g transform="matrix(1.11976,0,0,0.297545,-3454.99,-13.3898)">
                    <path d="M4891.77,947.498L5050.67,947.498" style="fill:none;stroke:rgb(65,64,77);stroke-width:1.12px;stroke-linecap:square;"/>
                </g>
                <g transform="matrix(0.560476,0,0,0.163606,-698.793,114.817)">
                    <circle cx="4889.13" cy="925.844" r="4.791" style="fill:white;"/>
                    <path d="M4889.13,921.052C4891.77,921.052 4893.92,923.199 4893.92,925.844C4893.92,928.488 4891.77,930.635 4889.13,930.635C4886.48,930.635 4884.34,928.488 4884.34,925.844C4884.34,923.199 4886.48,921.052 4889.13,921.052ZM4889.13,922.112C4891.18,922.112 4892.84,923.79 4892.84,925.844C4892.84,927.898 4891.18,929.576 4889.13,929.576C4887.08,929.576 4885.42,927.898 4885.42,925.844C4885.42,923.79 4887.08,922.112 4889.13,922.112Z" style="fill:rgb(65,64,77);"/>
                </g>
                <g transform="matrix(0.560476,0,0,0.163606,-691.288,114.781)">
                    <circle cx="4889.13" cy="925.844" r="4.791" style="fill:white;"/>
                    <path d="M4889.13,921.052C4891.77,921.052 4893.92,923.199 4893.92,925.844C4893.92,928.488 4891.77,930.635 4889.13,930.635C4886.48,930.635 4884.34,928.488 4884.34,925.844C4884.34,923.199 4886.48,921.052 4889.13,921.052ZM4889.13,922.112C4891.18,922.112 4892.84,923.79 4892.84,925.844C4892.84,927.898 4891.18,929.576 4889.13,929.576C4887.08,929.576 4885.42,927.898 4885.42,925.844C4885.42,923.79 4887.08,922.112 4889.13,922.112Z" style="fill:rgb(65,64,77);"/>
                </g>
                <g transform="matrix(0.560476,0,0,0.163606,-706.297,114.781)">
                    <circle cx="4889.13" cy="925.844" r="4.791" style="fill:white;"/>
                    <path d="M4889.13,921.052C4891.77,921.052 4893.92,923.199 4893.92,925.844C4893.92,928.488 4891.77,930.635 4889.13,930.635C4886.48,930.635 4884.34,928.488 4884.34,925.844C4884.34,923.199 4886.48,921.052 4889.13,921.052ZM4889.13,922.112C4891.18,922.112 4892.84,923.79 4892.84,925.844C4892.84,927.898 4891.18,929.576 4889.13,929.576C4887.08,929.576 4885.42,927.898 4885.42,925.844C4885.42,923.79 4887.08,922.112 4889.13,922.112Z" style="fill:rgb(65,64,77);"/>
                </g>
                <g transform="matrix(1.18834,0,0,0.286408,-3797.08,-0.260355)">
                    <path d="M5009.9,930.509C5009.9,928.851 5008.76,927.505 5007.37,927.505L4932.61,927.505C4931.22,927.505 4930.08,928.851 4930.08,930.509L4930.08,930.575C4930.08,932.233 4931.22,933.579 4932.61,933.579L5007.37,933.579C5008.76,933.579 5009.9,932.233 5009.9,930.575L5009.9,930.509Z" style="fill:white;"/>
                    <path d="M5009.82,931.323C5009.54,932.619 5008.55,933.579 5007.37,933.579L4932.61,933.579C4931.22,933.579 4930.08,932.233 4930.08,930.575L4930.08,930.509C4930.08,928.851 4931.22,927.505 4932.61,927.505L5007.37,927.505C5008.76,927.505 5009.9,928.851 5009.9,930.509L5009.9,930.575C5009.9,930.833 5009.87,931.083 5009.82,931.323L5009.13,930.509C5009.13,929.352 5008.34,928.412 5007.37,928.412C5007.37,928.412 4932.61,928.412 4932.61,928.412C4931.64,928.412 4930.85,929.352 4930.85,930.509L4930.85,930.511C4930.85,930.537 4930.84,930.571 4930.82,930.611L4930.85,930.575C4930.85,931.732 4931.64,932.671 4932.61,932.671C4932.61,932.671 5007.37,932.671 5007.37,932.671C5008.34,932.671 5009.13,931.732 5009.13,930.575L5009.13,930.575L5009.13,930.511L5009.82,931.323Z" style="fill:rgb(65,64,77);"/>
                </g>
                <g transform="matrix(1.07634,0,0,1.16287,-3231.26,-833.303)">
                    <rect x="4894.28" y="950.757" width="141.234" height="19.654" style="fill:white;stroke:rgb(65,64,77);stroke-width:0.41px;"/>
                </g>
                <g transform="matrix(1.75418,0,0,0.484709,-7444.23,-1063.49)">
                    <ellipse cx="5420.66" cy="2765.96" rx="6.009" ry="6.009" style="fill:rgb(253,181,70);stroke:rgb(35,55,66);stroke-width:0.53px;stroke-linecap:butt;stroke-linejoin:miter;stroke-miterlimit:2;"/>
                </g>
                <g transform="matrix(0.594444,0,0,0.147094,-1113.25,-128.706)">
                    <rect x="5328.12" y="2803.92" width="196.849" height="65.636" style="fill:rgb(35,55,66);stroke:rgb(65,64,77);stroke-width:1.63px;stroke-linecap:butt;stroke-linejoin:miter;stroke-miterlimit:2;"/>
                </g>
                <g transform="matrix(0.515217,0,0,0.173315,-683.812,-204.227)">
                    <text x="5370.35px" y="2784.72px" style="font-family:'Rubik-ExtraBold', 'Rubik';font-weight:800;font-size:19.926px;fill:rgb(35,55,66);">9<tspan x="5383.79px " y="2784.72px ">6</tspan></text>
                </g>
                <g transform="matrix(0.515217,0,0,0.173315,-643.361,-204.227)">
                    <text x="5370.35px" y="2784.72px" style="font-family:'Rubik-ExtraBold', 'Rubik';font-weight:800;font-size:19.926px;fill:rgb(35,55,66);">1<tspan x="5381.15px 5395.37px " y="2784.72px 2784.72px ">06</tspan></text>
                </g>
                <g transform="matrix(0.605397,0,0,0.173315,-1167.13,-203.95)">
                    <rect x="5362.94" y="2801.08" width="48.548" height="8.776" style="fill:rgb(253,181,70);stroke:rgb(65,64,77);stroke-width:1.5px;stroke-linecap:butt;stroke-linejoin:miter;stroke-miterlimit:2;"/>
                </g>
                <g transform="matrix(2.02573,0,0,0.173315,-8798.98,-201.02)">
                    <rect x="5362.94" y="2801.08" width="48.548" height="8.776" style="fill:rgb(253,181,70);stroke:rgb(65,64,77);stroke-width:0.61px;stroke-linecap:butt;stroke-linejoin:miter;stroke-miterlimit:2;"/>
                </g>
                <g transform="matrix(2.02573,0,0,0.173315,-8798.98,-196.91)">
                    <rect x="5362.94" y="2801.08" width="48.548" height="8.776" style="fill:rgb(253,181,70);stroke:rgb(65,64,77);stroke-width:0.61px;stroke-linecap:butt;stroke-linejoin:miter;stroke-miterlimit:2;"/>
                </g>
                <g transform="matrix(0.605397,0,0,0.173315,-1137.74,-203.95)">
                    <rect x="5362.94" y="2801.08" width="48.548" height="8.776" style="fill:rgb(35,55,66);stroke:rgb(65,64,77);stroke-width:1.5px;stroke-linecap:butt;stroke-linejoin:miter;stroke-miterlimit:2;"/>
                </g>
                <g transform="matrix(0.356844,0,0,0.0982059,188.569,1.68533)">
                    <rect x="5362.94" y="2801.08" width="48.548" height="8.776" style="fill:rgb(35,55,66);stroke:rgb(65,64,77);stroke-width:2.59px;stroke-linecap:butt;stroke-linejoin:miter;stroke-miterlimit:2;"/>
                </g>
                <g transform="matrix(1.82495,0,0,0.173315,-7715.81,-198.965)">
                    <rect x="5362.94" y="2801.08" width="48.548" height="8.776" style="fill:rgb(238,236,236);stroke:rgb(65,64,77);stroke-width:0.67px;stroke-linecap:butt;stroke-linejoin:miter;stroke-miterlimit:2;"/>
                </g>
                <g transform="matrix(1.82495,0,0,0.173315,-7715.81,-194.855)">
                    <rect x="5362.94" y="2801.08" width="48.548" height="8.776" style="fill:rgb(238,236,236);stroke:rgb(65,64,77);stroke-width:0.67px;stroke-linecap:butt;stroke-linejoin:miter;stroke-miterlimit:2;"/>
                </g>
                <g transform="matrix(0.832122,0,0,0.287911,-2419.99,-519.172)">
                    <rect x="5490.44" y="2755.92" width="26.809" height="20.232" style="fill:rgb(35,55,66);stroke:rgb(65,64,77);stroke-width:0.98px;stroke-linecap:butt;stroke-linejoin:miter;stroke-miterlimit:2;"/>
                </g>
            </g>
        </g>
    </g>
</svg>
